<svg version="1.1" id="Layer_1" xmlns="http://www.w3.org/2000/svg" xmlns:xlink="http://www.w3.org/1999/xlink" x="0px" y="0px"
	 width="100%" viewBox="0 0 448 688" enable-background="new 0 0 448 688" xml:space="preserve">
<path fill="#000000" opacity="1.000000" stroke="none"
	d="
M240.151657,541.374878
	C232.228256,542.037476 224.770782,542.770264 217.487427,544.542908
	C214.965790,545.156555 211.934021,545.935791 211.593887,549.153625
	C211.275314,552.167480 214.058578,553.247498 216.156357,554.502808
	C224.807480,559.679688 234.369781,561.618652 244.284241,562.289307
	C257.457367,563.180359 270.574371,563.253479 283.425751,559.595825
	C289.130981,557.972107 294.135437,555.190247 298.318573,550.847473
	C302.020966,547.003723 305.803314,546.741089 309.347870,549.615540
	C312.749298,552.373962 313.154114,556.420715 310.049561,560.758972
	C304.039398,569.157410 294.883057,572.728149 285.496094,575.010620
	C262.507111,580.600769 239.579361,579.800842 217.143951,571.985718
	C208.498901,568.974426 200.722473,564.375854 196.732208,555.492737
	C192.851120,546.852661 195.573868,538.376770 203.783966,533.569153
	C213.233994,528.035461 223.748505,526.401733 234.471634,525.904602
	C250.397919,525.166138 266.316895,524.494507 282.304749,517.802734
	C265.903900,518.349121 250.576904,519.684937 235.179367,518.380920
	C216.152023,516.769470 197.363403,514.644043 180.908630,503.646545
	C167.695374,494.815552 159.645111,482.714691 157.802353,466.847046
	C157.370499,463.128448 155.912964,462.221924 152.408966,462.283356
	C134.268311,462.601532 116.590065,460.295197 99.769547,452.896057
	C87.981705,447.710724 79.672798,438.923889 72.909935,428.341064
	C71.755577,426.534637 70.941612,424.468719 69.098015,423.132263
	C67.104950,423.010895 66.305229,424.751831 65.054100,425.733643
	C55.414211,433.298218 44.646126,435.060760 33.643265,430.052002
	C21.824867,424.672058 16.975052,414.369141 16.894388,401.653503
	C16.880434,399.453766 17.341019,397.325562 18.256048,395.346619
	C19.836370,391.928802 22.580116,390.241547 26.325768,390.880280
	C29.927118,391.494446 31.760450,393.966949 31.933722,397.543915
	C32.103214,401.042908 32.258350,404.500610 33.306133,407.905365
	C35.100384,413.735657 39.284283,416.602386 44.975681,417.398499
	C49.980957,418.098572 56.537014,414.535675 59.291492,409.927765
	C54.126427,406.675568 48.920574,403.472290 43.789921,400.152802
	C29.901880,391.167328 30.064323,373.334778 37.369663,364.193695
	C46.639652,352.594177 64.729111,350.743378 76.259422,360.605011
	C86.930542,369.731750 89.328773,381.396667 85.712120,394.564575
	C84.922211,397.440613 84.172134,400.604126 82.423645,402.883453
	C78.629257,407.829803 80.575211,411.555115 83.076454,416.345856
	C93.532852,436.373413 111.470764,443.379761 132.265869,445.600525
	C139.370667,446.359253 146.560303,446.313599 153.709106,446.676117
	C156.229477,446.803894 158.087143,446.307739 159.241821,443.597076
	C166.577469,426.376190 180.640381,418.483948 198.332748,415.595276
	C214.387543,412.973938 230.568222,414.146118 246.696579,413.736938
	C262.839935,413.327423 279.019379,414.663269 295.132385,412.696899
	C298.641907,412.268646 302.001068,411.352386 305.146088,409.792328
	C308.286285,408.234680 310.035034,405.654541 309.222473,402.078003
	C308.351105,398.242706 305.288452,398.093353 302.098846,398.393707
	C275.504974,400.898102 248.832703,400.278442 222.201660,399.820831
	C202.085739,399.475189 182.008026,397.785461 162.568604,391.780334
	C140.269836,384.891937 122.789978,372.017487 111.564301,351.238525
	C110.536491,349.336029 109.638710,347.623474 107.066429,347.061096
	C83.640999,341.939453 69.196060,322.662781 67.910744,296.676880
	C66.944153,277.134888 71.389656,259.307495 86.007164,245.114075
	C90.507759,240.744080 95.784698,237.648956 101.430092,235.092972
	C106.826538,232.649689 107.882797,230.578751 107.476936,222.670380
	C107.323395,219.678696 106.915482,216.697464 106.828476,213.705521
	C106.674629,208.414734 105.588951,204.790909 99.340874,202.764175
	C89.020058,199.416321 83.838165,186.774261 86.972542,175.943237
	C90.576965,163.487885 101.925102,156.106812 114.482979,158.138733
	C124.108551,159.696182 130.634918,165.058594 133.296982,174.502472
	C135.981598,184.026291 132.841583,192.072372 125.481071,198.172073
	C122.135460,200.944611 121.186081,203.139450 124.179283,206.877075
	C130.082687,201.009598 136.049133,195.245682 142.646942,190.196915
	C165.912064,172.394012 192.468567,163.072525 221.309006,159.648682
	C224.940338,159.217560 228.596954,158.781097 232.243866,158.763382
	C235.603165,158.747055 237.189774,157.208939 237.488983,154.085327
	C238.947769,138.855530 240.931320,123.669571 240.815002,108.314377
	C240.789352,104.928841 239.158722,103.865273 236.368271,102.780037
	C222.253754,97.290771 213.806931,84.834923 213.797226,69.943932
	C213.787766,55.425991 222.293930,42.263733 235.021835,37.101452
	C248.460083,31.651058 265.945007,36.219154 274.377960,47.383595
	C284.774994,61.148270 284.827972,78.171181 274.483856,91.313622
	C271.043396,95.684792 266.992554,99.351227 261.849976,101.636978
	C259.541534,102.663025 258.086975,104.016441 258.085938,106.856750
	C258.080353,122.518433 258.677521,138.126953 261.160034,153.627579
	C261.687195,156.919418 263.025726,158.432922 266.601746,158.722198
	C306.748352,161.969650 342.455475,175.477554 371.327972,204.547134
	C371.914001,205.137192 372.547760,205.683975 373.194397,206.207520
	C373.430969,206.399063 373.769928,206.464218 374.231049,206.657990
	C376.027985,203.372559 375.616089,199.593857 376.578003,196.142700
	C377.249237,193.734360 375.114655,192.647736 373.829895,191.200287
	C365.211517,181.490768 364.714111,168.662003 372.597412,159.335464
	C380.601471,149.866089 393.799438,147.785049 404.151672,154.653030
	C411.848053,159.759003 415.741364,167.211060 414.577820,176.392395
	C413.157501,187.600250 407.170929,194.001663 396.995941,196.161636
	C394.527771,196.685608 392.959076,197.672882 392.490997,200.060196
	C390.496857,210.230804 389.219727,220.422699 390.976410,230.811905
	C391.408966,233.370102 392.633911,234.604782 394.871796,235.350525
	C434.687653,248.619141 440.831421,307.060333 409.905334,332.862640
	C405.274200,336.726532 400.040070,339.717682 394.162781,341.289124
	C391.186371,342.084991 389.407043,343.735291 387.984039,346.484283
	C375.991730,369.651581 356.839539,384.187164 332.303162,392.038330
	C325.754242,394.133881 325.705688,393.982239 326.870819,400.506683
	C328.491577,409.582550 322.794678,419.911591 314.230530,423.933044
	C305.234070,428.157501 295.603973,429.031158 285.954224,429.151794
	C263.293427,429.435120 240.623627,429.072693 217.965408,429.449554
	C207.495209,429.623718 196.990112,430.678223 187.410278,435.682587
	C182.298279,438.353058 177.967346,441.792542 175.762283,447.780975
	C179.242111,449.269592 182.698624,449.353058 186.106949,449.603912
	C200.673370,450.676147 214.935104,447.797577 229.326981,446.410217
	C251.720795,444.251404 274.212036,442.897186 296.556000,446.757233
	C309.951324,449.071320 322.709503,453.352722 333.194611,462.650116
	C337.546173,466.508636 340.558746,471.250824 342.481598,476.663452
	C347.626465,491.145721 341.359192,504.959137 326.928223,511.064026
	C321.082306,513.537109 315.109283,515.634155 308.703979,516.041626
	C306.557648,516.178223 304.986694,516.910034 303.687256,518.731506
	C297.304260,527.678772 288.065430,532.488708 278.022400,536.014832
	C265.917725,540.264771 253.226532,540.559326 240.151657,541.374878
M377.407562,243.138779
	C372.284698,227.262100 363.031586,214.365311 349.634644,204.402252
	C330.991119,190.537430 310.116211,181.825272 287.405243,177.370499
	C281.583954,176.228653 275.771942,174.696854 269.394104,175.348648
	C269.896759,180.998428 271.358063,186.300598 271.225586,191.814499
	C270.871338,206.557877 257.384491,216.702057 243.207230,212.674271
	C232.681076,209.683777 227.453232,200.467133 229.001602,187.895569
	C229.517441,183.707306 230.795013,179.564133 230.395508,175.100632
	C229.368866,175.100632 228.716949,175.061813 228.070740,175.106216
	C199.286270,177.083679 173.023773,186.172577 149.837616,203.453415
	C133.288498,215.787582 122.825691,232.135422 118.903557,252.550598
	C114.528595,275.322784 113.873955,298.042542 117.817139,321.033020
	C122.085541,345.919586 135.400604,363.310852 158.243774,373.606934
	C175.474579,381.373383 194.058426,382.078522 212.437698,383.607025
	C232.046524,385.237823 251.729095,385.052582 271.364105,384.528809
	C289.308502,384.050171 307.219177,382.597015 324.625122,377.496277
	C344.701935,371.612823 361.449554,361.343750 371.897644,342.517670
	C381.811188,324.654785 384.934052,305.161865 384.433167,285.147614
	C384.083893,271.190582 382.306122,257.253448 377.407562,243.138779
M301.034698,491.483734
	C302.814697,493.053192 304.096161,494.978790 305.111237,497.107544
	C305.691132,498.323730 306.375824,499.360596 307.892822,499.709259
	C313.074921,500.900330 324.242737,495.426849 326.703857,490.403900
	C329.412201,484.876404 327.536469,478.532318 321.557312,473.696014
	C314.942657,468.345612 307.196777,465.326385 298.997650,463.500671
	C275.086334,458.176361 251.127289,459.560333 227.088821,462.812195
	C213.429306,464.660034 199.711227,466.439270 185.821091,464.578278
	C182.146057,464.085938 178.289993,463.449707 174.555161,464.362427
	C173.534973,476.066010 184.510651,490.511688 195.829361,492.680084
	C197.592606,493.017914 199.095001,492.716339 200.506149,491.605927
	C207.634399,485.997009 216.040359,483.382904 224.707504,481.476868
	C241.298874,477.828156 258.079987,477.705353 274.795898,479.949707
	C284.212555,481.214020 293.402161,483.925842 301.034698,491.483734
M262.003174,57.563377
	C257.912537,52.404228 252.449799,50.825775 246.087006,51.177849
	C238.525848,51.596233 232.119034,57.067780 230.429291,64.855728
	C228.369141,74.350861 231.795425,82.717789 239.140121,86.127419
	C246.792389,89.679840 256.377258,88.177391 261.246429,82.662201
	C266.978546,76.169548 267.464569,66.403122 262.003174,57.563377
M98.923729,328.421753
	C100.211075,329.064423 101.324722,330.241577 103.158852,329.736145
	C98.108086,303.702362 98.710419,277.611572 102.549927,251.052628
	C98.901031,252.392334 96.545952,254.714981 94.397125,257.188202
	C84.366196,268.733582 81.730225,282.434692 82.687401,297.251068
	C83.499252,309.817963 87.402954,320.690277 98.923729,328.421753
M409.157623,265.429138
	C405.777618,260.060211 401.934143,255.155380 395.305206,251.588318
	C401.371582,276.260590 400.653442,300.209259 395.099976,324.806854
	C400.665436,323.051025 403.992035,320.093781 406.514404,316.388123
	C417.495575,300.255219 417.253967,283.370300 409.157623,265.429138
M227.967697,496.384064
	C224.403427,497.447601 220.839157,498.511108 217.274887,499.574615
	C241.027725,503.158356 264.626282,503.686127 289.770020,501.482819
	C284.113525,498.847961 279.789124,497.007050 275.031769,496.218109
	C259.619415,493.662231 244.221588,493.745087 227.967697,496.384064
M68.473106,395.208893
	C69.352989,392.360138 70.408798,389.551910 71.076660,386.654266
	C72.532066,380.339874 68.580856,373.196259 62.579655,370.954285
	C58.097755,369.279968 52.648499,370.517090 50.344013,373.906006
	C47.839718,377.588776 47.435425,381.580261 50.625069,384.902008
	C55.456585,389.933685 61.163532,393.806824 68.473106,395.208893
M253.666779,197.187836
	C257.261841,192.584869 256.940826,180.006546 252.986038,175.751144
	C250.408752,172.977921 248.085403,174.056396 246.655991,176.933594
	C244.571396,181.129593 243.300385,185.616714 243.221542,190.367661
	C243.107697,197.227737 246.334915,199.600601 253.666779,197.187836
M393.548889,182.225800
	C398.734222,179.315811 400.621063,173.758606 397.889069,169.442795
	C395.512817,165.688950 389.807190,164.705551 385.649323,167.321747
	C381.913879,169.672165 381.600311,173.373352 382.617004,176.948593
	C384.033234,181.928802 387.995789,183.238770 393.548889,182.225800
M103.638367,186.627853
	C106.490005,189.577927 109.790863,190.618149 113.501236,188.477173
	C116.527916,186.730728 118.705315,184.161331 118.326828,180.410904
	C117.943901,176.616486 115.840668,173.978210 112.096909,172.808151
	C108.843071,171.791168 106.048500,172.861832 104.017853,175.269379
	C101.282112,178.512878 101.314774,182.242706 103.638367,186.627853
z"/>
<path fill="#000000" opacity="1.000000" stroke="none"
	d="
M256.845581,351.106140
	C235.782059,350.609497 216.018616,347.075043 198.549591,335.239563
	C194.395981,332.425446 190.667877,329.117523 187.795105,324.946594
	C185.340668,321.383087 184.968353,317.761505 188.155319,314.501404
	C191.496170,311.083862 195.404617,311.329987 199.022644,313.931824
	C201.973846,316.054138 204.403610,318.901550 207.354660,321.024109
	C223.706375,332.785278 242.280945,335.963135 261.884796,334.530853
	C276.804199,333.440765 290.556824,328.929291 302.343292,319.366302
	C304.015656,318.009399 305.439209,316.349945 307.071899,314.939270
	C311.604736,311.022827 316.563354,310.847870 320.040344,314.407928
	C323.304382,317.749969 322.897339,322.395996 318.925049,326.902710
	C312.035095,334.719574 303.155273,339.528809 293.764832,343.589539
	C282.130890,348.620361 269.772308,350.078949 256.845581,351.106140
z"/>
<path fill="#000000" opacity="1.000000" stroke="none"
	d="
M155.616028,260.880005
	C164.083542,243.417618 184.288940,243.436569 195.020920,251.238785
	C203.577896,257.459778 207.198395,268.169250 204.286484,277.737610
	C200.990448,288.568237 192.109787,295.424072 180.643127,295.990265
	C161.443710,296.938232 148.629654,279.249634 155.616028,260.880005
M186.534271,270.319794
	C186.773529,268.699310 186.161469,267.308777 185.065964,266.244934
	C182.356735,263.613953 179.279633,262.119568 175.701706,264.545959
	C172.831284,266.492523 171.256989,269.296753 172.672256,272.711212
	C174.257172,276.534943 177.644821,277.371704 181.411346,276.673859
	C184.443207,276.112061 185.659958,273.745880 186.534271,270.319794
z"/>
<path fill="#000000" opacity="1.000000" stroke="none"
	d="
M330.846771,246.770569
	C344.008820,250.648788 350.783386,259.178589 351.513489,270.284637
	C352.509552,285.436279 337.164246,297.761536 322.549713,295.920319
	C308.005341,294.087952 298.097839,282.184967 299.933502,268.323822
	C301.862518,253.757507 316.247192,243.698334 330.846771,246.770569
M326.119843,263.413361
	C322.672150,263.295593 319.777740,264.341400 318.567810,267.822601
	C317.643738,270.481262 318.020538,273.136688 320.228577,275.161285
	C322.397003,277.149567 324.993225,277.444763 327.677460,276.450073
	C330.258881,275.493530 331.604187,273.540894 331.788971,270.762695
	C332.036377,267.043976 330.120789,264.853851 326.119843,263.413361
z"/>
</svg>