<svg version="1.1" id="Layer_1" xmlns="http://www.w3.org/2000/svg" xmlns:xlink="http://www.w3.org/1999/xlink" x="0px" y="0px"
	 width="100%" viewBox="0 0 1024 672" enable-background="new 0 0 1024 672" xml:space="preserve">
<path fill="#000000" opacity="1.000000" stroke="none" 
	d="
M57.795799,285.284973 
	C61.405678,286.543640 61.079014,289.322632 61.443081,291.990692 
	C62.035557,296.332672 62.983688,300.727295 68.022736,302.225494 
	C72.450806,303.542053 76.117088,302.145966 79.336159,298.585602 
	C77.462784,296.068848 74.671547,295.231689 72.337143,293.786102 
	C66.898270,290.418121 62.473621,286.296509 61.772430,279.489166 
	C60.974224,271.740021 64.709877,265.529083 71.944061,262.313904 
	C79.014137,259.171631 87.698463,260.932129 92.973442,266.896179 
	C99.759933,274.569214 100.018761,283.300262 95.634392,292.014191 
	C93.464256,296.327362 94.068192,299.384979 96.303360,303.390686 
	C103.386940,316.085358 115.238846,319.866821 128.363831,321.633545 
	C129.677658,321.810425 131.042221,321.610199 132.356125,321.786774 
	C140.204956,322.841553 145.936966,321.571167 150.667328,313.476196 
	C156.616516,303.295441 168.104019,301.247437 179.176697,300.863129 
	C196.819702,300.250824 214.481766,300.186920 232.135880,299.897888 
	C235.818466,299.837616 239.458145,299.591553 242.839142,297.904144 
	C245.019730,296.815857 246.307907,295.158905 245.606476,292.684662 
	C244.883911,290.135864 242.686234,290.438782 240.655273,290.531677 
	C214.367157,291.734314 188.045197,292.878967 161.879959,289.186127 
	C141.685394,286.335999 124.651497,277.872314 114.443031,259.054901 
	C113.344566,257.030060 111.686058,256.446747 109.729187,255.841599 
	C95.438210,251.422333 86.723572,239.891190 85.593048,224.882660 
	C84.658173,212.471466 86.553734,201.044678 94.683762,191.119476 
	C97.938591,187.145935 101.812080,183.992004 106.494843,182.151108 
	C110.615440,180.531219 112.145912,177.912506 111.684357,173.719406 
	C111.429939,171.408051 111.267128,169.081802 111.180672,166.757904 
	C111.056686,163.425323 109.670418,161.566193 106.314598,160.242477 
	C99.708641,157.636719 96.524590,150.685211 97.791878,143.357071 
	C99.024063,136.231842 105.411026,130.504807 112.678780,130.008301 
	C119.737251,129.526123 126.670280,133.818161 128.646469,140.352753 
	C130.590500,146.781006 129.230164,152.606384 124.009094,157.098160 
	C122.283516,158.582718 121.198616,159.894592 122.620529,162.348450 
	C126.855629,158.766739 130.971878,155.034485 135.344604,151.631821 
	C152.341202,138.405807 171.989899,132.324875 193.185333,130.779663 
	C196.430908,130.543045 198.228928,129.637405 198.500641,126.357452 
	C199.214691,117.737709 199.836136,109.109116 200.669159,100.500954 
	C201.041077,96.657486 199.695862,94.625702 196.040680,92.939552 
	C186.045837,88.328880 181.267273,78.745216 182.852676,67.881538 
	C184.256073,58.264965 191.392273,50.582191 200.715958,48.650120 
	C210.501923,46.622253 221.067154,51.833988 225.717117,60.982944 
	C230.420593,70.237221 229.173996,83.039665 220.222595,88.499962 
	C209.481781,95.051773 212.475235,104.043900 212.539398,112.820145 
	C212.574341,117.601181 213.676163,122.369995 214.214035,127.153633 
	C214.485611,129.568878 215.716660,130.511948 218.131439,130.707703 
	C243.999390,132.804565 267.064117,141.545197 286.148193,159.631439 
	C286.856995,160.303177 287.726807,160.804962 288.756866,161.557892 
	C291.974304,157.831787 290.856415,154.728424 288.330811,151.352203 
	C282.902191,144.095184 283.571869,135.479355 289.748138,129.677292 
	C294.450745,125.259651 300.989838,124.141991 306.910095,126.744026 
	C312.971802,129.408234 316.438019,134.765259 316.342468,141.321594 
	C316.244659,148.028320 312.904907,153.061005 306.299164,155.313675 
	C302.976410,156.446762 301.246582,158.105118 301.146210,161.627609 
	C301.094574,163.438660 300.495697,165.227448 300.334686,167.043198 
	C299.645905,174.809509 300.443695,180.510071 309.251648,184.987167 
	C323.328125,192.142288 327.403534,206.206635 326.072327,221.234177 
	C324.791534,235.692764 317.647095,246.691360 303.594513,252.182907 
	C301.275879,253.088989 299.611542,254.229126 298.422394,256.454712 
	C290.479156,271.320984 278.142548,280.931549 262.229401,285.998047 
	C258.722778,287.114471 256.936493,288.168213 257.815796,292.518463 
	C259.069214,298.719971 255.364624,304.537170 249.348099,307.490448 
	C243.036057,310.588806 236.166306,310.984833 229.360504,311.099213 
	C214.534515,311.348358 199.701782,311.171997 184.873962,311.349396 
	C178.025574,311.431305 171.208618,312.104065 164.991241,315.412323 
	C161.881348,317.067078 158.962631,318.959686 157.753098,323.321381 
	C166.852844,324.518372 175.701050,324.210175 184.564133,323.123108 
	C204.434738,320.685944 224.318542,318.634003 244.079819,323.825317 
	C251.915558,325.883728 259.199860,329.117065 264.535706,335.586975 
	C273.410461,346.347961 270.722168,360.507843 257.865814,365.227905 
	C249.112350,368.441681 241.307007,372.316437 233.785233,377.928101 
	C223.946136,385.268616 211.536469,385.036133 199.739685,385.966492 
	C195.099289,386.332489 190.464188,386.880615 185.864792,387.592285 
	C184.125351,387.861420 181.972794,388.418610 181.596985,390.519745 
	C181.194885,392.767853 183.294846,393.624115 184.859146,394.437195 
	C195.322418,399.875549 206.610886,400.185913 217.990204,399.362457 
	C226.063370,398.778259 233.807419,397.163269 239.793900,390.878723 
	C241.618134,388.963654 244.120285,389.232666 246.149567,390.949951 
	C248.149048,392.642090 248.658142,394.768127 247.443161,397.224792 
	C245.466751,401.221161 241.880737,403.374359 238.105713,405.166626 
	C226.573318,410.641968 214.304703,411.087799 201.913467,409.882904 
	C196.129501,409.320496 190.378296,408.270386 184.894714,406.138824 
	C181.131241,404.675873 177.603302,402.822906 174.673813,400.016815 
	C167.206085,392.863770 168.735443,383.195709 178.122818,378.902527 
	C184.421570,376.021851 191.195923,375.049011 198.070297,374.900513 
	C207.203506,374.703247 216.227478,373.929321 224.876175,370.616333 
	C215.114868,370.280182 205.377060,370.994110 195.640259,370.298218 
	C183.402710,369.423584 171.472473,367.601715 160.905533,360.711945 
	C152.685806,355.352539 147.270767,348.013672 145.561493,338.299591 
	C144.884995,334.454956 143.246460,333.125763 139.305191,333.152710 
	C130.801208,333.210999 122.431786,331.975830 114.182030,329.679626 
	C103.191612,326.620667 94.800720,320.344299 88.882607,310.652222 
	C88.364647,309.803986 87.753563,309.008850 87.139366,308.225372 
	C86.945580,307.978210 86.600464,307.849670 86.271538,307.631653 
	C84.267906,307.546844 83.081032,309.148224 81.558495,310.072418 
	C74.547119,314.328430 67.396339,314.893921 60.376667,310.345917 
	C53.161732,305.671417 50.934021,298.583405 51.802818,290.382874 
	C52.136242,287.235657 53.955833,285.205414 57.795799,285.284973 
M159.145065,149.672089 
	C155.719894,151.388519 152.201523,152.943039 148.886642,154.851089 
	C137.993805,161.120956 128.282578,168.919525 123.537148,180.858963 
	C115.015678,202.298920 114.531029,224.560944 120.733696,246.516495 
	C125.946129,264.966888 140.352646,274.162048 158.392075,277.500671 
	C181.950821,281.860809 205.814240,281.267883 229.624954,280.298035 
	C238.097687,279.952850 246.497757,278.829071 254.786423,276.710144 
	C276.728485,271.100800 289.925873,257.232971 294.423462,235.177368 
	C297.890747,218.174484 296.421600,201.443680 290.749908,185.051682 
	C287.782593,176.475677 282.774445,169.300705 275.821411,163.575989 
	C264.988251,154.656631 252.674347,148.524078 239.052200,145.167694 
	C232.995224,143.675278 226.973511,141.546234 220.158325,142.411652 
	C220.402786,146.441956 220.953415,150.226440 220.769028,153.974762 
	C220.586044,157.694412 219.049072,161.075241 216.138412,163.648102 
	C213.113998,166.321503 209.570587,167.412537 205.562302,167.344696 
	C202.042130,167.285095 198.986954,166.079208 196.542297,163.653412 
	C190.282990,157.442398 193.191742,149.688507 193.491913,141.997025 
	C181.545029,142.279419 170.531876,145.050095 159.145065,149.672089 
M229.409088,345.793365 
	C234.426941,347.329102 239.038193,349.522552 242.255798,353.897644 
	C245.414917,358.193176 249.078629,358.508179 254.330414,354.891113 
	C258.836212,351.787811 259.780762,347.705261 256.807922,343.369415 
	C254.467468,339.955963 250.985901,337.893890 247.231918,336.462067 
	C234.721573,331.690399 221.691620,330.673553 208.475082,331.711945 
	C199.373322,332.427032 190.263672,333.236847 181.224106,334.485901 
	C174.213638,335.454590 167.317444,335.154083 160.369095,334.327789 
	C156.911880,333.916687 155.844025,335.295166 156.931854,338.711426 
	C158.919632,344.953857 162.754517,349.426575 168.744171,352.095123 
	C170.558838,352.903595 172.166473,352.892792 173.936646,351.856110 
	C191.232544,341.726837 209.766495,342.263092 229.409088,345.793365 
M214.732239,63.827290 
	C209.613007,58.573338 203.134857,57.659008 198.255295,61.501709 
	C193.271484,65.426506 191.795425,72.932419 194.980804,78.152809 
	C198.125580,83.306602 205.182205,85.241104 210.835083,82.499077 
	C217.060715,79.479225 218.880997,71.875595 214.732239,63.827290 
M108.475693,243.202286 
	C105.600098,226.504684 106.183868,209.740540 108.221024,192.596176 
	C105.445229,193.816925 103.949989,195.394043 102.620255,197.077911 
	C94.638199,207.185806 93.618896,218.669693 96.686348,230.635925 
	C98.233612,236.671829 101.083939,242.178192 108.475693,243.202286 
M310.997925,235.454865 
	C321.659729,221.921341 315.261658,197.414230 303.879425,194.109070 
	C307.689209,209.533081 306.481934,224.751099 304.084045,240.240173 
	C307.642761,239.642349 308.967957,237.646271 310.997925,235.454865 
M223.138687,359.678680 
	C225.739517,359.360107 228.340347,359.041534 230.941177,358.722961 
	C216.195099,353.093933 201.417419,353.013153 186.579376,357.893158 
	C198.406586,359.739319 210.303558,359.873718 223.138687,359.678680 
M79.386757,272.002930 
	C76.236847,271.880890 73.929993,272.986603 72.873550,276.198425 
	C71.831024,279.367920 73.699463,281.383972 75.779762,282.995819 
	C78.608185,285.187378 81.508560,287.430542 85.090469,288.303009 
	C89.672531,280.042999 87.915512,274.439667 79.386757,272.002930 
M209.894043,155.201508 
	C211.765442,151.461304 210.684418,147.800659 209.538239,144.168320 
	C209.133759,142.886429 208.425552,141.681412 206.893646,141.544739 
	C205.257462,141.398788 204.613876,142.633408 204.123032,143.900970 
	C203.229370,146.208664 202.397491,148.538681 202.300568,151.051849 
	C202.098862,156.282104 204.110260,157.629211 209.894043,155.201508 
M298.192230,146.243729 
	C301.553650,147.200623 304.214294,146.190826 305.430237,142.926224 
	C306.255829,140.709579 306.010925,138.346588 303.703491,136.747955 
	C301.152710,134.980713 298.518066,134.987915 296.578247,137.293411 
	C294.089661,140.251099 294.379028,143.341019 298.192230,146.243729 
M118.285522,143.344482 
	C116.383850,140.381546 113.853836,139.276520 110.702690,141.238098 
	C108.272385,142.750961 107.716362,145.208664 108.621552,147.819717 
	C109.530167,150.440659 111.707047,151.301636 114.243790,150.721558 
	C117.714645,149.927872 119.181755,147.606674 118.285522,143.344482 
z"/>
<path fill="#000000" opacity="1.000000" stroke="none" 
	d="
M355.676331,283.955322 
	C356.278442,281.446075 356.721680,279.319916 357.406311,277.274597 
	C359.040405,272.393005 362.374115,269.392883 367.597046,269.010681 
	C372.804779,268.629639 376.792419,270.977905 378.898071,275.657471 
	C382.175049,282.940125 385.064117,290.398010 388.084839,297.794983 
	C389.320587,300.821014 390.471039,303.881866 392.157104,308.199005 
	C396.025787,299.282715 399.360504,291.552399 402.736237,283.840057 
	C404.004364,280.942810 405.369629,278.088074 406.687469,275.212524 
	C408.936279,270.305573 413.021271,268.534729 418.091858,268.881683 
	C423.109283,269.225037 425.784760,272.560699 427.088379,277.029358 
	C429.562927,285.511810 430.562531,294.288574 431.907196,302.988281 
	C433.862823,315.640472 435.645905,328.328491 436.283447,341.120941 
	C436.625549,347.986206 432.630219,351.215240 425.873047,350.265778 
	C420.774353,349.549316 419.183044,346.068085 418.688385,341.495453 
	C417.419220,329.763245 416.047333,318.041992 414.671509,306.321655 
	C414.459564,304.516327 414.009338,302.738983 413.384979,299.451996 
	C411.615173,303.514099 410.356842,306.396393 409.103241,309.280731 
	C406.515259,315.235199 403.944214,321.197052 401.338379,327.143707 
	C399.564972,331.190704 396.486115,333.461975 392.023407,333.486176 
	C387.455017,333.510956 384.567352,330.890686 382.871765,326.922577 
	C379.731384,319.573273 376.729767,312.164703 373.668488,304.781616 
	C373.109314,303.432953 372.541321,302.087982 371.648712,299.956421 
	C369.148712,307.542511 369.341095,314.693481 368.362701,321.641479 
	C367.435730,328.224640 367.046936,334.881683 366.288971,341.491058 
	C365.569122,347.767517 362.293762,350.576233 356.398529,350.219666 
	C350.968384,349.891235 348.475677,347.140991 348.701843,340.769012 
	C349.186127,327.125732 351.329529,313.642548 353.130890,300.133026 
	C353.833588,294.863159 354.787628,289.626831 355.676331,283.955322 
z"/>
<path fill="#000000" opacity="1.000000" stroke="none" 
	d="
M814.160522,244.383667 
	C789.869385,253.573227 764.926636,241.693985 759.318298,218.650330 
	C758.512207,215.338257 758.097290,211.867676 758.817444,208.745163 
	C761.461426,197.281219 761.270386,184.656113 771.268860,175.953720 
	C772.704224,174.704453 773.167664,172.881927 773.734497,171.124893 
	C776.601807,162.236603 781.867920,155.532944 791.025574,152.482590 
	C793.953918,151.507187 796.279053,149.718216 798.446228,147.584061 
	C804.533691,141.589432 811.846375,139.650864 820.037292,141.813919 
	C823.436035,142.711472 826.558105,142.611420 829.807556,141.550507 
	C833.740784,140.266388 837.908813,139.899551 841.479126,142.001953 
	C847.384766,145.479462 854.444458,146.899414 859.813293,150.707153 
	C867.903503,156.444946 876.350647,162.597107 879.934875,172.613266 
	C881.652283,177.412735 882.574829,182.517731 883.578003,187.540146 
	C883.922607,189.265274 883.676758,191.221741 883.259583,192.967087 
	C880.677856,203.769821 866.914185,212.749710 855.990417,210.864212 
	C855.006348,210.694351 854.031433,210.471664 853.049438,210.289154 
	C841.356812,208.116196 838.722534,209.547440 834.830078,220.757309 
	C831.162476,231.319809 824.788452,239.437317 814.160522,244.383667 
M788.601990,165.085083 
	C785.370422,167.502228 783.562256,170.687897 782.949829,174.709351 
	C782.493408,177.706009 781.139099,180.304337 778.929688,182.567642 
	C769.941101,191.775757 768.923889,203.657349 768.463196,215.562607 
	C768.342712,218.676636 770.056824,221.695129 771.972900,224.254105 
	C779.101868,233.775238 788.562073,238.437332 800.530151,237.317886 
	C813.333740,236.120331 821.791260,229.433548 825.452881,216.962067 
	C826.492371,213.421448 827.888550,210.064896 830.200745,207.130417 
	C837.060242,198.424957 846.032898,197.914108 855.970093,200.049698 
	C867.582031,202.545166 875.157776,194.509537 872.000488,183.400574 
	C871.819946,182.765503 871.652100,182.085587 871.685791,181.437317 
	C872.014648,175.116745 869.157471,170.633621 863.904602,167.359787 
	C862.525391,166.500229 861.196045,165.284760 860.334961,163.922318 
	C857.899048,160.068054 854.298767,158.265411 850.021179,157.645233 
	C847.427612,157.269196 845.246765,156.234909 843.366333,154.503632 
	C839.405334,150.856842 834.762390,150.122238 829.879211,151.829422 
	C826.206543,153.113388 822.819946,152.990601 819.181702,151.812988 
	C814.665771,150.351273 809.832520,150.726196 806.288635,153.665512 
	C800.984131,158.065201 795.102844,161.341064 788.601990,165.085083 
z"/>
<path fill="#000000" opacity="1.000000" stroke="none" 
	d="
M406.498444,216.903290 
	C408.569672,228.765915 404.371429,237.694748 393.931824,242.217041 
	C380.494507,248.037872 367.301117,247.031189 354.915161,238.936417 
	C351.440277,236.665421 349.349823,233.286514 348.374756,229.221619 
	C347.263824,224.590332 348.806030,220.959686 352.723389,218.503006 
	C356.671539,216.027008 361.372864,216.687927 364.360535,220.544098 
	C368.745758,226.204086 374.122894,228.850220 381.267395,227.889206 
	C384.691254,227.428650 387.369904,226.074402 388.213562,222.469482 
	C389.050842,218.891586 387.312775,216.348709 384.480438,214.465729 
	C380.851013,212.052856 376.831451,210.457520 372.712189,209.078476 
	C367.965912,207.489456 363.355957,205.625702 359.230042,202.679718 
	C346.075348,193.286942 345.578522,175.831696 358.576233,166.261688 
	C370.245270,157.669983 383.032501,157.626831 396.002960,163.032318 
	C400.286621,164.817551 403.451630,168.097916 404.710114,172.770142 
	C405.889343,177.147964 405.407257,181.075226 401.088501,183.654404 
	C396.820129,186.203522 393.345306,184.522263 390.461273,181.292862 
	C386.175690,176.494110 381.100922,174.554733 374.839294,176.384613 
	C371.405151,177.388184 369.007416,179.504028 368.376984,183.237091 
	C367.731995,187.056335 369.610291,189.563583 372.547546,191.622864 
	C375.033752,193.365906 377.770386,194.537155 380.607147,195.533478 
	C385.323090,197.189804 389.971893,198.999771 394.389832,201.368835 
	C400.578552,204.687424 404.849335,209.504349 406.498444,216.903290 
z"/>
<path fill="#000000" opacity="1.000000" stroke="none" 
	d="
M657.766174,221.438339 
	C653.720642,233.727997 645.852844,241.270096 633.394531,243.649628 
	C628.291565,244.624283 623.515991,243.343094 619.107788,241.133331 
	C617.972229,241.108414 617.529724,241.843903 616.960999,242.442078 
	C614.512024,245.017944 611.579224,245.630035 608.307312,244.336563 
	C604.922546,242.998505 603.657593,240.243149 603.648499,236.801559 
	C603.629089,229.480240 603.632202,222.158707 603.664978,214.837433 
	C603.727478,200.860153 603.830811,186.883026 603.883728,172.905716 
	C603.893860,170.225128 604.038147,167.584671 605.003723,165.050156 
	C606.515930,161.080933 609.520569,159.459732 613.615051,159.696472 
	C617.656494,159.930161 620.207092,162.123627 620.714111,166.099487 
	C621.153564,169.545609 621.130981,173.057648 621.195618,176.542740 
	C621.269043,180.506042 621.212585,184.471756 621.212585,188.243546 
	C622.666626,189.044586 623.447632,188.209442 624.295471,187.785843 
	C641.021484,179.428452 657.870605,189.037201 659.200439,207.720047 
	C659.521484,212.229523 659.281494,216.700394 657.766174,221.438339 
M639.924744,203.514862 
	C634.304321,199.295029 627.794006,200.232300 624.082581,205.967041 
	C621.700500,209.647736 620.466553,213.825409 620.368286,218.184692 
	C620.197510,225.758026 625.940552,229.595779 633.073975,226.869446 
	C641.950256,223.477005 645.325012,213.046585 639.924744,203.514862 
z"/>
<path fill="#000000" opacity="1.000000" stroke="none" 
	d="
M565.667725,187.271545 
	C578.323364,182.045929 590.245789,186.842377 595.762817,199.069748 
	C602.997681,215.104309 596.027222,235.301651 580.969727,241.784668 
	C573.886780,244.834229 566.808350,245.356079 559.742798,241.098465 
	C556.893494,243.872131 553.745911,246.107407 549.589783,244.256958 
	C545.134338,242.273224 544.014832,238.071213 543.983215,233.856522 
	C543.869263,218.696732 544.032166,203.534164 544.176880,188.373489 
	C544.227722,183.047684 544.616821,177.725266 544.676270,172.399353 
	C544.706543,169.688217 545.053040,167.032120 546.010864,164.563644 
	C547.604309,160.457245 550.965088,158.706253 555.192322,159.326462 
	C559.200256,159.914474 561.223206,162.680496 561.263977,166.703217 
	C561.316345,171.867111 561.178711,177.032776 561.212402,182.197083 
	C561.226257,184.323563 560.736511,186.510574 561.666687,188.565826 
	C563.254272,189.235199 564.153076,187.868744 565.667725,187.271545 
M572.490906,201.025177 
	C561.145935,200.893600 558.235413,217.460251 561.984070,224.446991 
	C562.903076,226.159698 564.637329,226.934052 566.451660,227.401840 
	C572.810181,229.041306 579.672363,224.482697 581.508240,217.429062 
	C583.703064,208.996490 580.594116,202.797058 572.490906,201.025177 
z"/>
<path fill="#000000" opacity="1.000000" stroke="none" 
	d="
M499.727905,331.029663 
	C500.662842,333.438812 501.437805,335.458038 502.284790,337.446594 
	C504.320007,342.224823 503.398590,346.378113 499.808441,348.435394 
	C495.291351,351.023895 489.249756,349.685730 486.557190,345.438599 
	C485.692169,344.074188 485.003510,342.597992 484.105377,340.934357 
	C477.066956,347.625977 469.202209,351.243866 459.531433,349.754059 
	C449.559784,348.217865 443.746155,342.061737 441.612091,332.665192 
	C438.797607,320.272491 441.317719,308.742615 449.648743,298.994568 
	C459.390900,287.595398 471.447388,286.801331 484.558502,296.243774 
	C486.313538,295.947906 486.623016,294.254974 487.437195,293.092651 
	C489.728607,289.821442 492.835632,288.544830 496.556458,289.826508 
	C500.189606,291.077850 501.548340,294.135468 501.179230,297.804626 
	C500.430695,305.245605 499.017578,312.627014 499.217743,320.149384 
	C499.310669,323.642456 499.470917,327.133698 499.727905,331.029663 
M478.609833,320.774933 
	C478.747192,319.122589 479.021118,317.468170 478.995544,315.818329 
	C478.927032,311.404388 477.755096,307.528534 473.029755,305.961945 
	C468.539276,304.473267 465.309082,306.721375 462.643799,309.962067 
	C458.329041,315.208435 457.330017,321.295593 458.863312,327.758942 
	C460.015747,332.616669 463.578247,334.430847 468.298309,332.961761 
	C473.961548,331.199066 476.714569,326.848480 478.609833,320.774933 
z"/>
<path fill="#000000" opacity="1.000000" stroke="none" 
	d="
M599.630005,290.732849 
	C611.930298,293.756897 616.938660,300.082886 617.961304,315.038971 
	C618.584595,324.153290 618.381348,333.355377 617.464966,342.481262 
	C616.905640,348.051544 613.715027,350.632874 608.093994,350.521576 
	C603.338318,350.427368 600.128113,347.538391 600.016113,342.192871 
	C599.880493,335.722321 600.471252,329.237976 600.693970,322.757751 
	C600.768250,320.595856 600.790466,318.420166 600.636963,316.264984 
	C600.328796,311.937164 598.687073,308.453400 594.007202,307.440887 
	C589.570923,306.481079 585.013916,308.973511 582.875000,313.141449 
	C581.370605,316.073120 581.124573,319.174622 581.138916,322.360596 
	C581.167419,328.689056 581.321838,335.020996 581.164856,341.345062 
	C581.017822,347.269531 578.080872,350.217957 572.717407,350.328125 
	C567.085876,350.443787 563.867554,347.495972 563.836304,341.288239 
	C563.729675,320.137756 563.760132,298.985229 563.948914,277.835358 
	C564.008911,271.108887 567.469482,267.617950 573.083618,267.672882 
	C578.331421,267.724213 581.206970,270.558167 581.326172,276.188721 
	C581.462219,282.613892 581.357605,289.044220 581.357605,296.281433 
	C587.150330,292.057770 592.792480,290.000183 599.630005,290.732849 
z"/>
<path fill="#000000" opacity="1.000000" stroke="none" 
	d="
M725.644287,180.954071 
	C738.642639,185.175781 744.342163,194.241089 741.392944,205.598892 
	C739.162231,214.189621 732.683960,217.698349 724.684387,219.291016 
	C718.814514,220.459671 712.876404,220.412018 706.824890,219.600098 
	C708.001221,226.502884 713.719421,230.224350 721.023254,229.397110 
	C724.411316,229.013351 727.463318,227.763870 730.208862,225.759781 
	C733.470947,223.378662 736.803223,223.124756 739.649902,226.160141 
	C742.437256,229.132294 741.981689,232.733185 739.979187,235.863342 
	C734.848816,243.883026 726.770264,246.413971 717.929993,246.038956 
	C699.755432,245.267960 688.076721,232.296921 688.306702,213.835358 
	C688.539124,195.182587 701.128235,180.944916 718.323486,180.062485 
	C720.610596,179.945129 722.936096,180.576141 725.644287,180.954071 
M725.002319,203.634460 
	C727.836792,198.763412 726.371216,195.580872 721.070557,195.096542 
	C714.313110,194.479141 709.479553,198.174698 707.995667,205.571411 
	C713.596802,205.888092 719.088684,206.841644 725.002319,203.634460 
z"/>
<path fill="#000000" opacity="1.000000" stroke="none" 
	d="
M763.068115,311.402405 
	C759.472717,321.604095 752.588379,326.453552 741.328552,326.914581 
	C737.546875,327.069397 733.753601,326.939087 729.711121,326.939087 
	C729.047363,331.027863 731.808472,332.997620 734.763489,334.359863 
	C739.374695,336.485626 744.141113,336.349792 748.714417,333.924561 
	C750.183167,333.145691 751.570251,332.202301 753.070984,331.496368 
	C756.079651,330.081055 758.964966,330.353973 761.324402,332.791351 
	C763.757935,335.305359 763.633606,338.241089 761.938477,341.067047 
	C758.829773,346.249603 753.965820,349.043488 748.223633,350.201294 
	C736.124695,352.640778 725.010193,350.828979 717.397949,340.219788 
	C708.944763,328.438660 709.709778,315.697388 716.341858,303.431671 
	C722.435974,292.160889 732.526611,287.550537 745.183960,288.837372 
	C756.884521,290.026917 763.704163,298.582245 763.068115,311.402405 
M734.942932,312.934875 
	C738.069763,312.769714 741.236023,312.851318 744.310547,312.359406 
	C746.666504,311.982483 748.773926,310.642609 748.573120,307.743164 
	C748.385010,305.028320 746.448181,303.793579 744.015625,303.235046 
	C739.403992,302.176178 733.937805,304.616028 731.657898,308.661743 
	C730.051147,311.512970 730.664429,313.013702 734.942932,312.934875 
z"/>
<path fill="#000000" opacity="1.000000" stroke="none" 
	d="
M703.290283,301.014099 
	C705.310425,304.987946 706.146423,308.935089 706.228027,312.914032 
	C706.412415,321.904968 706.304077,330.903290 706.203979,339.897369 
	C706.185791,341.530487 705.796265,343.205841 705.309326,344.778473 
	C703.933044,349.223511 700.423828,350.312988 696.273376,350.192932 
	C692.329651,350.078918 690.362610,347.819580 689.455566,344.132660 
	C688.181213,338.952454 689.985840,333.871490 689.686157,328.720551 
	C689.435120,324.405426 689.853638,320.046295 689.516296,315.742676 
	C689.184143,311.505096 687.455078,307.981689 682.615295,307.172607 
	C678.017334,306.403992 673.508545,308.736877 671.640808,313.163940 
	C670.077820,316.868835 669.390137,320.816406 669.375793,324.853149 
	C669.355652,330.516693 669.459534,336.182465 669.333130,341.843292 
	C669.211975,347.266357 666.158813,350.211243 660.940247,350.245178 
	C655.913696,350.277863 652.858887,347.617950 652.793152,342.191559 
	C652.611572,327.202301 652.673950,312.208740 652.790710,297.218079 
	C652.820496,293.397919 654.571228,290.484863 658.674500,289.604309 
	C662.849548,288.708374 666.279236,289.562927 668.334778,293.692474 
	C668.691284,294.408600 669.124634,295.086426 669.526062,295.788330 
	C684.603699,286.505280 694.859985,288.040009 703.290283,301.014099 
z"/>
<path fill="#000000" opacity="1.000000" stroke="none" 
	d="
M412.271637,222.222244 
	C410.530151,209.364441 412.159210,197.837494 421.519989,188.492340 
	C429.740265,180.285797 443.047028,178.018509 452.946625,183.212265 
	C457.970825,185.848190 461.357971,189.754288 461.621246,195.707596 
	C461.783356,199.373825 460.358307,202.277969 456.811920,203.670959 
	C453.424011,205.001724 450.807678,203.760895 448.445190,201.075562 
	C443.074707,194.971176 434.878265,196.556763 431.781891,204.260956 
	C430.001160,208.691696 429.714569,213.394547 430.553101,218.039001 
	C432.053711,226.350739 439.689728,229.953781 447.258270,226.067261 
	C448.432556,225.464233 449.510651,224.639389 450.547882,223.810364 
	C453.744873,221.255142 457.311188,220.286606 460.550446,223.110641 
	C464.072632,226.181335 463.756927,230.108276 461.524323,234.018875 
	C454.017761,247.167191 432.903687,249.097046 420.837646,237.680420 
	C416.475952,233.553467 413.806458,228.440262 412.271637,222.222244 
z"/>
<path fill="#000000" opacity="1.000000" stroke="none" 
	d="
M544.059998,331.056091 
	C545.607666,329.996185 546.755249,328.942993 548.106995,328.378662 
	C553.180237,326.260651 557.664612,329.430054 557.440369,334.931641 
	C557.229858,340.100464 554.189453,343.548737 550.122986,346.195343 
	C532.937439,357.380066 510.061798,346.133698 508.011047,325.242767 
	C506.804199,312.948303 510.224945,302.026337 520.470703,294.234253 
	C528.835022,287.873108 538.066528,286.614014 547.753418,291.007660 
	C552.277527,293.059692 555.039673,296.773376 556.021057,301.651947 
	C556.686768,304.961487 555.401062,307.628967 552.483398,309.238922 
	C549.608826,310.825195 546.805786,310.625946 544.180847,308.333496 
	C536.684875,301.786987 530.146240,303.540588 526.854675,312.989960 
	C526.149658,315.013916 525.574158,317.169312 525.453735,319.293365 
	C525.170227,324.292603 526.033386,329.081451 530.593384,332.072723 
	C535.050842,334.996765 539.503357,333.884399 544.059998,331.056091 
z"/>
<path fill="#000000" opacity="1.000000" stroke="none" 
	d="
M485.726410,186.357895 
	C489.037781,185.204666 492.066376,183.506805 495.308624,182.490814 
	C505.700867,179.234344 513.952026,185.691010 513.399292,196.360596 
	C513.181091,200.573013 511.035034,203.102814 507.148926,204.404312 
	C503.529999,205.616302 501.230988,204.054260 499.129883,201.181824 
	C496.303101,197.317307 492.643860,197.517349 489.922577,201.537079 
	C488.012909,204.357925 487.227783,207.590790 487.215179,210.993652 
	C487.186249,218.810883 487.213226,226.628525 487.142303,234.445343 
	C487.083099,240.969879 483.774506,244.832291 478.310425,244.920990 
	C473.114929,245.005356 469.985779,241.918350 469.618774,235.524796 
	C468.713135,219.747849 468.831940,203.958633 469.557281,188.170807 
	C469.766785,183.611053 472.093933,181.018753 476.458954,180.421738 
	C480.940186,179.808853 484.288757,181.399811 485.726410,186.357895 
z"/>
<path fill="#000000" opacity="1.000000" stroke="none" 
	d="
M861.609985,308.952393 
	C865.749390,304.869019 869.040039,306.787842 872.353943,309.967407 
	C878.144653,305.754913 883.731018,305.843048 888.989075,311.476807 
	C890.756592,310.476379 892.435669,309.467957 894.165833,308.556580 
	C902.841064,303.986755 911.227783,307.594513 913.396851,317.127716 
	C915.375488,325.824066 914.415039,334.699860 913.981873,343.483124 
	C913.807739,347.014709 911.273560,349.294159 907.501892,348.998108 
	C903.789734,348.706757 902.543640,345.978699 902.546021,342.647949 
	C902.550232,336.820099 902.726501,330.992523 902.754456,325.164459 
	C902.766968,322.548737 902.312927,319.729065 899.189453,319.457581 
	C895.923279,319.173737 894.871399,321.816010 894.193237,324.622589 
	C892.877991,330.065826 893.822693,335.581757 893.451233,341.051392 
	C893.103821,346.167297 891.229492,348.486084 887.244019,348.199768 
	C882.580200,347.864746 881.799500,344.503845 881.774170,340.729950 
	C881.740662,335.733276 881.848267,330.735168 881.773682,325.739502 
	C881.730957,322.880585 881.701172,319.584381 877.866516,319.297638 
	C874.130005,319.018311 873.423218,322.249603 872.795715,325.018677 
	C871.753723,329.616486 872.546936,334.314392 872.285706,338.959290 
	C872.174377,340.939026 872.126221,342.967896 871.641113,344.870300 
	C870.927124,347.669830 868.688904,348.884003 865.966797,348.821594 
	C863.081421,348.755524 860.977844,346.903778 860.936951,344.193237 
	C860.761597,332.572479 859.908875,320.930847 861.609985,308.952393 
z"/>
<path fill="#000000" opacity="1.000000" stroke="none" 
	d="
M681.946411,187.713318 
	C680.954773,202.147232 681.186462,216.107010 682.004333,230.065170 
	C682.150879,232.567047 682.053101,235.033005 681.518860,237.505066 
	C680.420471,242.586990 677.289978,245.253784 672.565735,244.957840 
	C667.971375,244.670044 664.809998,241.404221 664.760742,236.298187 
	C664.633911,223.154541 664.699280,210.009003 664.694397,196.864227 
	C664.690918,187.546371 664.641602,178.228012 664.721069,168.910812 
	C664.772339,162.901733 667.470276,159.917831 672.817322,159.629486 
	C678.288940,159.334396 681.606567,161.864502 682.004272,167.792496 
	C682.437134,174.245758 682.020813,180.756012 681.946411,187.713318 
z"/>
<path fill="#000000" opacity="1.000000" stroke="none" 
	d="
M852.480652,342.401855 
	C843.957336,350.863129 832.693604,351.336121 825.150208,343.813049 
	C817.347778,336.031677 817.660706,320.217651 825.876282,311.943512 
	C831.201965,306.579865 837.736084,305.510193 844.805786,307.317810 
	C851.413147,309.007111 855.311768,313.700806 857.002686,320.004852 
	C859.135071,327.954315 858.070862,335.512329 852.480652,342.401855 
M841.535522,318.027863 
	C836.683472,316.606415 833.938049,319.132721 832.158020,323.186218 
	C830.151978,327.754456 831.186401,333.999786 834.250305,336.132629 
	C835.953064,337.317963 837.799377,337.643066 839.932495,337.081635 
	C843.868042,336.045807 845.706482,333.294495 846.371948,329.625061 
	C847.191895,325.103699 846.673523,320.949493 841.535522,318.027863 
z"/>
<path fill="#000000" opacity="1.000000" stroke="none" 
	d="
M535.448120,212.702377 
	C535.414673,220.625885 535.446533,228.114502 535.357422,235.601685 
	C535.292969,241.020660 532.777161,244.047348 528.059387,244.663010 
	C523.315674,245.282043 519.588745,242.504791 518.331970,237.360031 
	C518.096924,236.397995 517.923096,235.391891 517.922791,234.406067 
	C517.919556,222.425491 517.808350,210.442169 518.034180,198.465393 
	C518.166138,191.468140 521.823059,187.867020 527.621582,188.396576 
	C532.136902,188.808929 534.889221,190.945328 535.447083,195.836212 
	C536.074768,201.339340 535.550232,206.791962 535.448120,212.702377 
z"/>
<path fill="#000000" opacity="1.000000" stroke="none" 
	d="
M628.492432,297.526978 
	C637.650269,292.739349 643.271118,295.938324 643.320007,305.689789 
	C643.378479,317.352081 643.310059,329.015900 643.183960,340.677856 
	C643.115417,347.017395 640.298340,350.109436 634.803040,350.264526 
	C629.043396,350.427063 625.933594,347.384003 625.849426,340.757660 
	C625.697144,328.763763 625.826660,316.766022 625.877258,304.770050 
	C625.888062,302.217407 626.549927,299.828217 628.492432,297.526978 
z"/>
<path fill="#000000" opacity="1.000000" stroke="none" 
	d="
M814.294312,333.818390 
	C818.844116,337.655975 818.527771,341.864624 813.741272,345.868683 
	C807.698914,350.923279 796.478271,350.784698 790.705566,345.136261 
	C783.890137,338.467590 782.319824,330.200714 784.947693,321.192047 
	C787.374268,312.873047 792.723206,307.275696 801.356323,305.441437 
	C807.024536,304.237152 811.981873,306.073639 815.614807,310.556458 
	C817.877136,313.347900 818.471863,316.772858 815.773010,319.674316 
	C813.045471,322.606781 810.528381,320.939209 807.955933,318.880829 
	C804.286011,315.944366 800.255127,316.844849 797.859924,320.868073 
	C795.675293,324.537537 795.580139,328.552734 796.625000,332.485046 
	C797.759827,336.756195 802.098083,338.391510 806.166260,336.374542 
	C808.651001,335.142609 810.767944,332.889740 814.294312,333.818390 
z"/>
<path fill="#000000" opacity="1.000000" stroke="none" 
	d="
M638.094604,289.582703 
	C630.142517,290.929596 624.988831,288.189362 623.659302,282.247742 
	C622.286194,276.110962 625.434998,270.496826 631.114319,268.955719 
	C637.514587,267.218964 644.073669,270.223022 645.887329,275.721741 
	C647.736694,281.328644 644.921387,286.547302 638.094604,289.582703 
z"/>
<path fill="#000000" opacity="1.000000" stroke="none" 
	d="
M538.587952,169.325119 
	C537.471130,178.557510 530.302246,183.291550 522.850586,180.134995 
	C518.478394,178.282928 515.403442,173.765579 515.967407,169.605133 
	C516.638062,164.658218 519.548767,161.464752 524.351013,160.176453 
	C529.328918,158.841003 534.809387,160.837143 537.021057,164.767822 
	C537.737305,166.040787 538.032959,167.550385 538.587952,169.325119 
z"/>
<path fill="#000000" opacity="1.000000" stroke="none" 
	d="
M781.237915,344.544434 
	C779.700378,349.044281 776.738525,350.884064 772.619385,349.686523 
	C768.720947,348.553192 767.347412,345.328552 767.743713,341.440216 
	C768.163513,337.321930 770.822571,335.277252 774.698486,334.870239 
	C779.370483,334.379547 781.455505,337.407410 781.237915,344.544434 
z"/>
<path fill="#000000" opacity="1.000000" stroke="none" 
	d="
M252.349091,243.214996 
	C243.353760,252.193497 232.432358,256.358093 220.525803,258.107635 
	C205.328949,260.340607 190.703598,258.252594 176.939743,251.200760 
	C172.618759,248.986923 168.644333,246.260544 165.720657,242.266937 
	C163.749710,239.574707 163.072372,236.698395 165.764145,234.184525 
	C168.492569,231.636368 171.270798,232.684494 173.799896,234.814575 
	C192.770294,250.792038 213.480743,251.364609 235.311264,241.710632 
	C238.532684,240.286041 241.283951,238.119080 243.767120,235.614197 
	C246.473206,232.884445 249.604950,231.251144 252.982513,234.130753 
	C256.318878,236.975266 254.761841,240.082062 252.349091,243.214996 
z"/>
<path fill="#000000" opacity="1.000000" stroke="none" 
	d="
M160.769501,188.907104 
	C171.342102,190.881409 177.555130,197.689560 177.092850,206.354126 
	C176.652756,214.602539 169.582245,221.681686 161.216949,222.249420 
	C150.670959,222.965149 142.935623,216.246841 142.479492,205.975540 
	C142.042358,196.131622 149.311539,189.175140 160.769501,188.907104 
M163.935989,203.404251 
	C162.340820,201.074463 160.312119,199.922501 157.595612,201.432129 
	C155.867798,202.392319 154.973740,203.966461 155.341156,206.021317 
	C155.728745,208.188995 157.487000,209.145706 159.282120,209.245590 
	C162.730560,209.437469 164.389145,207.470306 163.935989,203.404251 
z"/>
<path fill="#000000" opacity="1.000000" stroke="none" 
	d="
M261.194641,189.339523 
	C271.294373,193.299423 275.694275,200.128052 274.111633,208.884521 
	C272.752655,216.403549 265.334961,222.242508 257.094360,222.279953 
	C247.348557,222.324234 239.987747,215.457367 239.734772,206.085236 
	C239.493698,197.153915 247.052094,189.281372 256.338013,188.879013 
	C257.817139,188.814941 259.311493,189.102356 261.194641,189.339523 
M260.605804,203.211609 
	C259.561462,201.219879 257.994080,200.173859 255.738846,200.907288 
	C253.456650,201.649490 252.038330,203.206070 252.459717,205.763474 
	C252.830582,208.014191 254.496048,209.480621 256.584534,209.378952 
	C259.744263,209.225113 261.246948,207.183182 260.605804,203.211609 
z"/>
<path fill="#000000" opacity="1.000000" stroke="none" 
	d="
M855.729004,166.903900 
	C862.355164,171.386948 863.888184,176.144516 860.836548,181.837494 
	C858.045410,187.044495 851.918640,188.940186 845.684021,186.504318 
	C844.311218,185.967987 842.934570,184.748825 841.459778,185.542465 
	C834.350708,189.368286 829.408508,186.656967 825.529419,179.923645 
	C822.486389,184.751770 819.128296,188.614792 813.854248,190.114334 
	C805.074768,192.610504 794.708435,186.168045 792.915833,177.136505 
	C791.166565,168.323456 797.864075,159.269470 807.665710,158.995468 
	C815.397400,158.779327 822.760132,160.110672 830.567444,156.716675 
	C836.491211,154.141510 843.666565,161.896988 844.253113,169.817673 
	C844.506165,173.235199 844.832825,176.520676 847.915833,178.651077 
	C850.076050,180.143860 852.413757,180.474915 853.959900,177.913834 
	C855.411743,175.508926 853.491211,174.201187 851.660645,173.292206 
	C849.306702,172.123306 846.691406,170.934448 848.339539,167.818954 
	C849.949951,164.774475 852.795715,165.661636 855.729004,166.903900 
M817.612793,176.979401 
	C819.457397,171.283142 818.744263,169.505585 813.593384,167.841873 
	C812.441467,172.994431 810.163513,177.613388 805.424438,181.274902 
	C811.387817,183.908737 814.492981,181.232788 817.612793,176.979401 
M828.002502,171.703964 
	C829.883972,169.337234 833.108276,168.932922 835.448120,167.023117 
	C833.455994,163.352341 830.894348,163.111816 827.991882,165.104462 
	C825.622559,166.731125 825.578552,169.352478 828.002502,171.703964 
M802.099365,169.773727 
	C801.142273,171.243515 799.827087,172.686874 801.719543,174.604187 
	C804.710266,173.395874 805.306702,171.097961 805.495850,168.350784 
	C804.045898,168.087631 803.263000,168.656311 802.099365,169.773727 
z"/>
<path fill="#000000" opacity="1.000000" stroke="none" 
	d="
M795.631409,192.472641 
	C798.442505,200.473312 800.854004,208.307144 802.675598,216.166153 
	C803.997620,221.869980 796.005615,228.104065 789.247131,228.243301 
	C778.040894,228.474167 770.841980,217.424286 775.656067,207.337402 
	C776.315796,205.955139 776.796936,204.636383 776.483337,203.055542 
	C775.494019,198.067657 776.678406,193.741165 781.079407,190.894348 
	C786.064941,187.669403 790.870117,188.708206 795.631409,192.472641 
M782.175232,215.691116 
	C783.864563,218.784393 786.498657,220.292038 789.942078,219.606766 
	C792.636414,219.070572 795.357605,217.724091 794.346008,214.324707 
	C793.274414,210.723679 790.085205,209.383011 786.560608,209.499893 
	C783.205994,209.611145 781.497253,211.556427 782.175232,215.691116 
M788.136780,202.431259 
	C789.857483,201.763443 791.151245,200.731857 790.276245,198.707153 
	C789.665833,197.294693 788.224670,197.157211 786.843689,197.307220 
	C785.577576,197.444748 784.575378,198.084045 784.412598,199.405807 
	C784.141296,201.608536 785.662415,202.226532 788.136780,202.431259 
z"/>
</svg>