<svg version="1.1" id="Layer_1" xmlns="http://www.w3.org/2000/svg" xmlns:xlink="http://www.w3.org/1999/xlink" x="0px" y="0px"
	 width="100%" viewBox="0 0 1024 1024" enable-background="new 0 0 1024 1024" xml:space="preserve">
<path fill="#000000" opacity="1.000000" stroke="none" 
	d="
M371.137390,652.186279 
	C368.836792,653.966919 368.693665,656.424133 367.884949,658.581177 
	C366.451416,662.404480 364.346985,665.506958 359.596375,665.054321 
	C354.560730,664.574585 349.836151,661.352234 350.134613,657.019348 
	C350.835876,646.838318 348.419800,636.526550 350.912720,626.527588 
	C353.749481,615.149536 359.958344,605.478943 368.026581,597.016724 
	C369.654327,595.309448 371.544281,593.506531 373.990814,593.761169 
	C378.541229,594.234619 380.704437,591.442566 383.383881,588.497070 
	C392.315430,578.678589 400.041962,567.555664 412.037048,560.906738 
	C412.327698,560.745605 412.723419,560.610657 412.856873,560.352966 
	C416.675385,552.981445 423.147186,549.916931 430.839813,547.537781 
	C435.042999,546.237854 437.725647,541.076416 440.964447,537.632935 
	C443.371765,535.073425 439.685242,534.360596 437.611664,534.376648 
	C429.590454,534.438538 421.630829,533.978027 413.778625,532.239868 
	C411.018616,531.628845 408.278961,530.915222 405.504120,530.383789 
	C399.445526,529.223511 395.205048,525.838257 392.937897,520.125183 
	C391.600433,516.754822 389.261597,515.396301 385.671753,515.158264 
	C366.201477,513.867249 358.996185,506.184418 353.868713,485.962158 
	C351.199493,475.434937 352.161774,464.773315 357.093292,454.791565 
	C357.999420,452.957489 357.614624,451.255371 357.044708,449.478394 
	C353.891907,439.648407 350.777313,429.806152 347.607391,419.981720 
	C346.564789,416.750305 345.017853,414.163971 341.560699,412.559296 
	C336.800629,410.349823 335.297760,404.458221 337.609589,399.654083 
	C339.701080,395.307831 344.682404,393.334686 348.973694,395.152740 
	C353.832458,397.211182 356.281097,402.460358 353.933868,407.592041 
	C352.385254,410.977692 353.070099,413.516907 354.463409,416.498535 
	C358.058044,424.190796 361.454987,431.975403 364.934845,439.721375 
	C365.891998,441.852020 366.764435,444.546600 369.671021,443.953339 
	C372.725464,443.329865 372.894257,440.470276 372.773834,437.892334 
	C372.593658,434.035492 373.136658,430.249023 373.672272,426.458069 
	C374.881073,417.902557 378.268402,410.326477 385.048920,404.867523 
	C407.719757,386.615173 433.365814,374.422668 461.686096,367.708191 
	C480.207184,363.316986 498.911133,362.439850 517.729004,364.610443 
	C527.456177,365.732422 536.244751,369.880737 544.558228,374.968750 
	C546.078308,375.899109 547.533936,377.582214 549.467041,376.191742 
	C551.252808,374.907288 550.750977,372.868805 550.355408,371.105774 
	C549.218079,366.036987 548.985046,360.823456 542.528259,358.463074 
	C538.490967,356.987213 537.849243,350.006592 540.296143,346.052460 
	C542.586487,342.351349 546.904663,341.171021 551.283569,343.049377 
	C555.659119,344.926270 558.566223,349.988129 556.553345,354.019409 
	C554.172241,358.788116 555.413025,362.845917 556.754578,367.397400 
	C559.809265,377.761047 562.523804,388.228821 565.182434,398.703583 
	C566.425964,403.603088 568.672363,407.114685 573.970154,408.405548 
	C577.819214,409.343445 580.795410,411.999756 582.792053,415.388885 
	C588.362244,424.843994 590.518738,435.149750 589.740295,446.053650 
	C589.407349,450.717590 587.532654,454.813965 583.961121,457.880798 
	C581.549316,459.951782 580.949341,462.402863 581.003357,465.419037 
	C581.131348,472.566772 581.498962,479.765778 578.751648,486.624115 
	C574.566711,497.071411 566.808899,504.088196 557.076477,509.189270 
	C547.474121,514.222290 537.694275,518.850647 527.279236,522.002563 
	C525.875549,522.427307 524.302063,522.650940 523.406982,524.736450 
	C526.752930,527.479004 529.325439,530.914185 534.778870,531.026611 
	C545.439026,531.246643 551.463989,539.068542 549.669556,549.585022 
	C549.080383,553.037781 549.459473,556.138062 550.891541,559.284607 
	C554.970947,568.247742 559.160034,577.136719 565.700378,584.654053 
	C568.385376,587.740112 571.276489,589.106628 575.885925,589.402222 
	C588.669434,590.221985 601.295898,592.607971 612.345947,599.995300 
	C617.876770,603.692871 623.696716,606.894714 629.669800,609.876404 
	C639.412354,614.739929 640.632690,620.434082 634.442444,629.030701 
	C632.451111,631.796021 630.206421,632.455688 627.135925,631.054260 
	C623.809387,629.535950 620.434448,628.115906 617.035950,626.765503 
	C614.647339,625.816467 612.735657,626.432922 611.846069,629.009460 
	C610.808594,632.013916 613.347839,632.160400 615.093872,632.895752 
	C615.706604,633.153870 616.346741,633.351013 616.982666,633.549316 
	C624.556885,635.911743 626.868225,638.167725 625.047974,642.485352 
	C622.169189,649.313843 619.265625,654.123901 611.036499,651.597778 
	C602.786011,649.065002 595.326904,643.577515 586.029297,645.043518 
	C572.603210,639.140076 560.588684,631.783508 556.402527,616.336609 
	C556.231140,615.704285 556.023010,614.942627 555.566650,614.548218 
	C550.683167,610.328369 545.746094,606.170410 540.706970,601.896484 
	C539.116577,605.008545 539.755432,609.925964 539.491638,614.466187 
	C539.094116,621.307007 537.464294,627.307739 533.790527,633.251770 
	C530.739563,638.187988 531.492065,644.491455 531.333008,650.267822 
	C530.915222,665.444824 528.134338,680.049194 520.830200,693.511658 
	C518.674500,697.484924 516.885376,702.482300 510.634064,701.103821 
	C506.634949,700.221985 504.773010,696.330078 504.818481,689.115662 
	C504.896210,676.782776 504.726349,664.460144 503.707855,652.158630 
	C503.233734,646.432312 501.228149,644.521484 495.719086,645.565674 
	C490.908051,646.477600 486.101227,646.324036 481.278351,646.364624 
	C477.160614,646.399292 474.894897,648.250488 474.208282,652.479187 
	C472.470673,663.180481 473.496582,674.108643 471.361145,684.771606 
	C470.475922,689.191895 469.446350,693.527954 467.512268,697.638794 
	C465.585876,701.733337 462.878418,704.315674 457.992676,704.397522 
	C452.901154,704.482727 449.691925,701.869080 447.872711,697.643372 
	C441.900269,683.770630 437.405396,669.542358 438.735382,654.106384 
	C439.077942,650.130493 439.164673,646.132080 439.531799,642.158997 
	C439.763123,639.655823 438.616577,638.076477 436.723907,636.726624 
	C433.386047,634.346313 431.914124,631.079163 431.548981,626.964233 
	C430.575012,615.987732 431.134033,604.987122 430.701019,594.007019 
	C430.622711,592.021423 430.665985,589.945435 430.091919,588.084290 
	C429.118744,584.929016 426.724792,583.739380 423.916290,585.743591 
	C415.467865,591.772827 407.715210,598.691956 401.914978,607.310730 
	C399.419647,611.018616 401.042633,616.096558 400.441254,620.534424 
	C399.746643,625.660400 399.321838,630.815247 397.449951,635.670410 
	C395.617950,640.422302 394.884735,645.274414 395.306458,650.336914 
	C395.589294,653.731934 394.730682,656.960632 393.537567,660.085815 
	C391.651550,665.025940 384.924072,667.378723 380.302521,664.775024 
	C377.309845,663.089050 377.353424,660.381775 377.555054,657.388062 
	C377.894989,652.341675 376.643616,651.366089 371.137390,652.186279 
M417.368591,392.161530 
	C411.770172,394.884247 408.993439,400.439941 404.008942,404.862091 
	C408.991089,404.601959 405.413177,407.389435 405.871399,408.610199 
	C407.287476,408.340027 407.509857,406.429260 409.008362,407.216553 
	C409.238739,408.940155 407.491577,410.315063 408.339447,412.062561 
	C418.501160,406.612701 441.372437,386.583588 445.116882,379.582520 
	C443.175568,380.143799 441.636261,380.650238 440.066589,381.031830 
	C434.033234,382.498688 431.158752,387.678162 427.363831,391.775848 
	C424.442200,394.930573 421.968018,398.613129 416.968262,400.881989 
	C420.122955,393.814850 426.042633,390.431885 430.054443,385.332184 
	C426.136871,387.941559 421.087494,388.266663 418.008881,392.000732 
	C418.008881,392.000732 418.042725,391.975555 417.368591,392.161530 
M455.293976,392.824249 
	C440.231812,398.137024 426.447632,405.708649 414.275757,416.106140 
	C407.892914,421.558533 407.249329,424.523285 409.698639,432.303833 
	C414.242798,446.738922 418.896027,461.151337 421.489227,476.120422 
	C424.043488,490.864899 426.497284,505.631592 429.395935,520.309387 
	C430.741821,527.124573 433.305206,528.778687 440.264923,528.732483 
	C470.106262,528.534241 499.224579,523.390503 527.722595,514.938354 
	C540.016479,511.292206 551.703186,505.816895 561.993408,497.875000 
	C571.004822,490.920074 574.675232,481.598511 574.264282,470.346893 
	C573.688904,454.594574 570.327087,439.356110 566.046509,424.291321 
	C562.995728,413.554749 559.591980,402.919098 553.656433,393.326111 
	C550.382446,388.034637 545.984375,383.986053 539.778748,382.640869 
	C533.112427,381.195831 526.329651,380.241364 519.484863,380.288239 
	C497.580627,380.438171 476.640076,385.665405 455.293976,392.824249 
M527.189026,537.508789 
	C525.327820,537.167786 523.899048,538.061646 522.771057,539.326782 
	C514.206299,548.933228 502.591034,551.056519 490.704102,552.151550 
	C481.903259,552.962280 473.109222,552.516602 464.406982,550.520020 
	C459.484589,549.390564 457.037506,551.279968 457.615784,555.531677 
	C459.212341,567.270203 459.733398,578.989868 458.437714,590.807617 
	C457.806793,596.562378 459.822113,599.305054 465.512817,600.352661 
	C487.946655,604.482605 509.562164,602.325562 529.979370,591.464722 
	C533.476807,589.604248 534.879578,587.070984 534.861633,583.069519 
	C534.819092,573.581055 534.918274,564.061951 533.414307,554.702820 
	C532.474976,548.857239 533.617798,542.093445 527.189026,537.508789 
M486.231354,640.669006 
	C499.574921,639.806824 512.651611,637.929016 524.707397,631.523987 
	C529.447510,629.005615 532.676086,625.692688 533.122864,620.098755 
	C533.558472,614.644348 534.397949,609.211060 534.596130,603.751648 
	C534.838989,597.061646 533.126526,595.883057 526.914062,598.403992 
	C506.883514,606.532288 486.377075,609.713745 464.957642,605.155334 
	C460.186279,604.139832 458.375854,605.650818 458.239685,610.393433 
	C458.043732,617.218567 457.052795,623.948120 456.157898,630.689514 
	C455.255463,637.487549 456.377228,638.829102 463.388275,639.710449 
	C470.670258,640.625732 477.961823,640.867554 486.231354,640.669006 
M356.538239,626.092163 
	C354.131805,633.862854 355.526886,636.533447 363.465942,638.834595 
	C366.810822,639.804077 370.236176,640.513855 373.648315,641.230530 
	C388.940308,644.442627 391.114532,643.300415 393.356018,627.786255 
	C396.125275,608.619019 396.886749,610.206421 382.651764,602.101624 
	C381.655365,601.534180 380.417206,601.401062 379.395233,600.867249 
	C375.581482,598.875305 372.776886,600.253784 370.240967,603.265747 
	C364.618103,609.944336 360.222778,617.349365 356.538239,626.092163 
M376.057220,463.590515 
	C382.549286,475.902344 385.078674,488.791260 381.854340,502.561951 
	C381.312683,504.875305 379.853333,507.863068 383.049622,509.105347 
	C385.961121,510.236969 389.537811,510.561981 391.922455,507.928284 
	C395.843048,503.598236 399.120789,498.796936 399.735138,492.679657 
	C400.335754,486.699005 400.326050,480.680695 399.564941,474.772430 
	C398.408752,465.797272 395.388824,457.336700 390.291748,449.786407 
	C388.190643,446.674042 385.267487,444.079895 381.145569,445.084503 
	C377.103912,446.069550 373.510284,448.314606 370.165314,450.780334 
	C367.746826,452.563171 367.929108,454.604126 370.179291,456.564941 
	C372.315247,458.426147 374.273071,460.460205 376.057220,463.590515 
M569.286926,616.047729 
	C569.884460,615.385376 570.199219,614.128662 571.510132,614.928406 
	C572.086914,618.428040 568.469727,621.185913 569.676208,625.193726 
	C572.968201,623.520691 572.401062,619.201721 575.570374,617.847107 
	C577.044495,620.744324 573.452393,622.760193 574.544739,625.453613 
	C576.708740,624.749451 575.781433,621.124634 578.908936,621.177429 
	C579.865723,625.106628 575.687805,628.601685 577.979797,632.826477 
	C580.175049,629.963745 579.725342,626.155396 582.725891,623.504700 
	C583.421936,627.311462 581.700623,630.072632 580.795227,632.967957 
	C579.408447,637.402954 583.336487,637.960938 585.653687,639.174927 
	C588.067017,640.439148 589.337219,638.382446 589.563477,636.166260 
	C590.718811,624.850159 594.720398,614.577820 600.740051,605.019287 
	C601.852905,603.252258 602.248413,601.254883 600.050415,600.357666 
	C592.475464,597.265564 584.602783,595.329407 576.346008,595.434509 
	C575.751099,595.442078 575.115356,595.904053 574.578735,596.271606 
	C568.361450,600.530334 563.950745,612.831787 565.930664,620.567932 
	C567.415771,619.563904 568.171631,618.085876 569.286926,616.047729 
M513.916565,371.417328 
	C501.654114,369.471558 489.417511,370.452209 477.112732,371.242096 
	C462.332947,372.190857 450.328613,378.054871 440.737152,389.159760 
	C439.820282,390.221283 438.179810,390.911987 438.818726,393.790771 
	C464.877563,382.997894 491.780304,376.052002 520.713074,374.656189 
	C518.657654,371.944305 516.436768,372.292145 513.916565,371.417328 
M420.794342,558.396301 
	C419.470825,560.194702 419.013306,562.342834 418.634369,564.442993 
	C417.421051,571.167603 423.168732,578.815308 429.922424,579.640442 
	C436.045929,580.388489 440.918945,575.428528 441.679352,567.673767 
	C442.577606,558.513245 439.259674,554.051147 431.091492,553.789307 
	C427.310730,553.668152 423.929321,554.988281 420.794342,558.396301 
M375.804321,503.081787 
	C380.428406,488.574646 377.015564,475.298767 369.497894,462.707184 
	C368.769928,461.487915 367.519135,460.324982 366.235809,459.748932 
	C363.918884,458.708771 361.621735,458.967529 360.282593,461.560577 
	C358.885498,464.265778 359.898804,465.939117 362.634918,466.928558 
	C363.704620,467.315460 364.829834,467.840607 365.639252,468.608887 
	C371.426788,474.102203 373.941589,491.887848 369.921021,499.151306 
	C368.877960,501.035706 367.931946,502.682648 369.972687,504.420013 
	C372.040405,506.180237 373.873230,505.954102 375.804321,503.081787 
M467.562195,666.150146 
	C466.990509,663.311523 465.253540,662.266052 462.464386,662.833008 
	C458.148132,663.710449 453.889771,663.557495 449.623108,662.382507 
	C447.592010,661.823181 445.287140,661.888794 444.734497,664.427490 
	C443.854248,668.471130 444.063538,672.919006 447.408295,675.518005 
	C452.350403,679.358154 458.288483,678.041321 463.704407,676.278320 
	C468.145935,674.832458 467.473816,670.545166 467.562195,666.150146 
M575.324768,431.380676 
	C576.962341,437.088684 576.827271,443.430969 580.894653,448.983337 
	C584.633728,441.284485 581.710449,421.239532 576.626221,415.785736 
	C575.513550,414.592133 574.281616,413.812012 572.687378,414.627014 
	C571.237427,415.368286 571.223938,416.849609 571.566528,418.136963 
	C572.676392,422.306915 573.932129,426.438019 575.324768,431.380676 
M513.016052,540.555664 
	C514.338928,539.555176 515.784241,538.678711 516.954407,537.523499 
	C518.490356,536.007080 520.320435,534.161133 519.368347,531.906311 
	C518.225464,529.199402 515.333984,528.649109 512.661682,528.334167 
	C509.919830,528.011108 508.803192,529.943298 508.208374,532.144104 
	C506.623383,538.008728 501.832550,540.314636 496.926636,542.513184 
	C494.838043,543.449219 492.715515,544.309692 490.608429,545.204468 
	C498.564026,546.803467 505.719910,545.016846 513.016052,540.555664 
M511.849854,655.175110 
	C508.573944,658.742249 508.670929,663.569458 512.052368,665.254028 
	C514.919067,666.682129 522.390869,665.545532 524.294373,663.020935 
	C526.235718,660.446167 527.283142,657.113159 525.913025,654.177612 
	C524.376892,650.886292 521.366638,652.690796 518.852478,653.366333 
	C516.770203,653.925781 514.651917,654.351624 511.849854,655.175110 
M544.480652,580.940491 
	C542.895630,582.083008 540.555115,582.984314 540.823425,585.226868 
	C541.198669,588.363037 542.550171,591.481506 545.250488,593.231384 
	C548.128357,595.096313 549.565674,591.976562 551.391235,590.524292 
	C552.554382,589.598938 553.607666,588.526428 554.815369,587.667908 
	C558.449097,585.084717 557.693604,582.411438 555.461487,579.247681 
	C553.012695,575.776733 550.689758,576.606750 548.026062,578.746094 
	C547.132385,579.463806 546.068481,579.969543 544.480652,580.940491 
M451.396179,691.139832 
	C455.217712,693.581055 459.118561,692.755859 462.843750,691.096497 
	C465.691010,689.828186 466.382324,687.088989 465.626556,684.325378 
	C464.913879,681.719116 462.510864,682.410706 460.565887,682.551208 
	C458.911316,682.670715 457.254303,683.069336 455.612671,683.000977 
	C448.345123,682.698364 447.489838,684.015076 451.396179,691.139832 
M511.675629,672.148132 
	C510.422150,673.221924 510.264771,674.686523 510.154846,676.205872 
	C509.871765,680.120056 511.070251,682.673523 515.545776,682.718201 
	C519.823425,682.760864 522.327881,680.517395 522.477783,676.033630 
	C522.624207,671.656006 519.334106,671.586548 516.296936,671.425354 
	C514.993591,671.356140 513.672607,671.617493 511.675629,672.148132 
M409.165680,590.626099 
	C410.436340,585.317810 405.224884,583.952332 403.073395,580.742615 
	C401.269897,578.052063 399.126465,578.274414 396.961334,580.660461 
	C394.710419,583.141052 395.187744,584.901489 397.828979,586.723328 
	C399.579132,587.930481 401.219147,589.437683 402.532227,591.106567 
	C404.713959,593.879517 406.646851,594.227356 409.165680,590.626099 
M393.826447,439.199615 
	C395.688599,435.135529 397.585297,431.086700 399.394287,426.999084 
	C400.032654,425.556641 400.144318,424.005341 398.644684,422.978088 
	C396.818085,421.726746 395.810516,423.287903 395.069946,424.466278 
	C392.606628,428.385742 390.281738,432.393738 387.968109,436.404877 
	C387.030792,438.029968 387.073517,439.562683 388.869690,440.690918 
	C390.688934,441.833710 392.279449,441.887787 393.826447,439.199615 
M613.639832,606.922668 
	C611.365479,605.860046 609.782471,606.694031 608.721375,608.780151 
	C607.822693,610.546936 606.539429,612.423035 608.232239,614.301147 
	C610.254822,616.545105 612.624329,618.541382 615.832886,618.538147 
	C617.611755,618.536316 618.913635,617.105591 619.393250,615.452576 
	C620.349304,612.157593 618.043701,610.215210 615.970093,608.273132 
	C615.496216,607.829346 614.854248,607.565002 613.639832,606.922668 
M536.514160,540.166321 
	C536.002686,544.455444 537.916443,548.295532 538.930359,552.271179 
	C539.516052,554.567627 541.502747,555.895813 543.075745,553.017883 
	C545.245300,549.048401 545.786133,544.715637 542.976501,540.755554 
	C541.495361,538.667908 539.483276,536.928711 536.514160,540.166321 
M408.283417,516.629761 
	C407.730896,518.508301 405.718994,520.180237 407.258087,522.520630 
	C411.274506,519.929199 420.147797,502.000946 418.633667,498.008820 
	C414.248718,503.875427 411.424377,509.918335 408.283417,516.629761 
M411.454498,497.010132 
	C413.132416,494.341827 414.685242,491.583191 416.527283,489.033447 
	C418.035156,486.946320 417.731934,485.291901 415.856873,482.625275 
	C412.356567,490.769592 406.548706,496.941864 406.475800,505.756683 
	C408.011963,503.052368 409.548096,500.348083 411.454498,497.010132 
M389.167938,656.338257 
	C389.655853,654.287842 390.337006,652.235840 389.203064,650.138977 
	C386.450562,649.784546 384.043121,650.017456 383.410034,653.236267 
	C383.037018,655.132874 382.408295,657.370361 384.411163,658.702209 
	C386.404327,660.027588 387.769073,658.636292 389.167938,656.338257 
M510.839020,694.888123 
	C512.778076,697.198242 513.980103,695.564941 515.039551,694.009216 
	C516.156982,692.368225 517.303406,690.612732 515.941895,688.555054 
	C515.106995,687.293335 513.767761,687.045715 512.420959,687.373291 
	C509.982666,687.966248 510.401428,690.052002 510.331787,691.811707 
	C510.299500,692.627319 510.454803,693.450317 510.839020,694.888123 
M446.516144,629.243652 
	C445.488129,630.947876 444.188019,632.755981 446.342621,634.425415 
	C447.462524,635.293213 449.004028,635.054993 449.942688,633.969482 
	C452.330353,631.208008 452.262604,628.244141 450.554474,625.136475 
	C448.433960,625.713562 447.987946,627.492615 446.516144,629.243652 
M401.386261,449.362976 
	C403.172211,445.791748 406.337494,442.683228 405.897217,437.217682 
	C401.497253,440.589294 400.304993,444.669952 398.750610,448.413635 
	C398.123169,449.924744 399.520264,450.324280 401.386261,449.362976 
M611.567566,644.262024 
	C614.000732,646.979919 616.124695,646.181458 617.917114,643.576782 
	C619.129944,641.814209 618.989929,640.119507 616.871460,639.095276 
	C613.673523,637.549133 613.016052,640.352478 611.842834,642.177246 
	C611.591736,642.567688 611.573853,643.108032 611.567566,644.262024 
M355.139984,649.790894 
	C355.211639,651.833923 354.568207,654.207825 357.614410,655.029541 
	C359.419983,653.721985 359.616455,651.747742 359.827087,649.788391 
	C359.993225,648.242798 359.982300,646.618469 358.153564,646.141968 
	C355.764191,645.519287 355.503113,647.385010 355.139984,649.790894 
M411.912292,483.981018 
	C412.747192,481.262085 417.034607,479.530853 414.591522,475.512817 
	C411.127991,478.282501 410.045715,480.843536 410.818512,486.360199 
	C411.075134,485.740662 411.331787,485.121155 411.912292,483.981018 
M398.502655,441.640778 
	C399.703339,438.408112 402.202515,435.629852 402.350159,431.507416 
	C398.384521,434.916595 396.348602,439.372284 397.362000,444.012726 
	C397.631531,443.403229 397.901031,442.793701 398.502655,441.640778 
M610.326782,636.480164 
	C608.874512,635.811279 607.303528,634.535950 605.927185,636.301575 
	C604.724426,637.844543 604.812561,639.603455 606.363281,641.391968 
	C608.252380,640.245972 610.626282,639.779236 610.326782,636.480164 
z"/>
<path fill="#000000" opacity="1.000000" stroke="none" 
	d="
M476.287170,420.517029 
	C488.062500,428.898132 493.685822,445.289032 489.718079,458.929993 
	C484.061157,478.378357 464.791077,483.206757 450.703766,468.705597 
	C441.872253,459.614685 438.955017,441.735443 444.386597,430.370483 
	C449.253265,420.187561 462.759552,412.318329 476.287170,420.517029 
M478.088562,450.568726 
	C478.284149,456.692413 475.850800,462.364929 474.184723,468.611755 
	C478.731384,468.239441 480.456360,465.547424 481.915161,462.821442 
	C486.282562,454.660156 485.879395,446.211670 482.900299,437.747620 
	C480.467346,430.835236 476.102264,425.615753 469.056519,423.034637 
	C465.872681,421.868256 462.762238,421.729340 460.020172,424.567841 
	C461.208008,425.954010 462.662201,425.740906 463.874512,426.104462 
	C471.048279,428.255951 471.917145,430.437958 468.004944,436.365387 
	C467.011169,437.871063 465.842255,439.504089 467.108459,441.394135 
	C468.200867,443.024811 469.892700,443.986847 471.811371,443.622467 
	C476.915314,442.653137 478.419312,445.167786 478.088562,450.568726 
z"/>
<path fill="#000000" opacity="1.000000" stroke="none" 
	d="
M548.324829,409.473267 
	C563.208740,419.692871 567.119873,442.533630 556.712646,456.783722 
	C549.680725,466.412170 536.107117,466.817749 527.142151,457.667236 
	C517.339844,447.662109 515.090515,428.325195 522.329102,416.291351 
	C528.207886,406.518127 537.294495,404.037201 548.324829,409.473267 
M556.663757,431.800018 
	C554.919678,424.293884 552.035034,417.479095 544.932312,413.438416 
	C540.564697,410.953705 536.523804,411.564453 534.144836,415.056580 
	C535.929443,415.617828 537.679382,416.058960 539.345703,416.712921 
	C544.118042,418.585876 544.756897,420.572632 541.998779,424.722443 
	C541.066956,426.124390 539.955139,427.486633 541.089478,429.260345 
	C542.266785,431.101257 543.995911,432.157379 546.165344,431.713440 
	C550.186890,430.890503 551.071533,433.071289 551.276428,436.406921 
	C551.613037,441.885895 550.406982,446.963928 547.940613,451.829041 
	C547.177795,453.333679 545.494019,454.758575 546.830811,456.777069 
	C554.147705,455.440857 559.018433,443.523071 556.663757,431.800018 
z"/>
<path fill="#000000" opacity="1.000000" stroke="none" 
	d="
M527.145386,494.349030 
	C506.221710,500.819275 485.583466,501.246185 464.884308,495.321472 
	C458.813232,493.583740 457.768524,490.850647 461.201691,486.539795 
	C461.829620,485.751312 462.424591,484.881561 463.611267,485.149811 
	C464.988800,485.461304 465.522583,486.539581 465.369690,487.780212 
	C465.067566,490.231323 466.593689,491.138916 468.497314,491.471436 
	C492.541077,495.671112 516.205200,496.530609 537.798584,482.393402 
	C541.920044,479.695099 547.084473,477.644684 547.147705,471.138947 
	C547.168579,468.993958 549.487671,468.907928 550.945312,470.275421 
	C553.606384,472.772003 554.184265,475.447998 551.402954,478.494507 
	C544.756775,485.774658 536.879089,491.105347 527.145386,494.349030 
z"/>
<path fill="#000000" opacity="1.000000" stroke="none" 
	d="
M417.993835,392.015381 
	C418.618347,391.959534 419.257965,391.889069 420.456940,391.756927 
	C419.013397,395.625824 416.516418,398.018829 413.674866,400.178192 
	C413.876526,396.961090 416.513245,395.169525 417.889557,392.281403 
	C418.042725,391.975555 418.008881,392.000732 417.993835,392.015381 
z"/>
</svg>