<svg version="1.1" id="Layer_1" xmlns="http://www.w3.org/2000/svg" xmlns:xlink="http://www.w3.org/1999/xlink" x="0px" y="0px"
	 width="100%" viewBox="0 0 1024 1024" enable-background="new 0 0 1024 1024" xml:space="preserve">
<path fill="#000000" opacity="1.000000" stroke="none" 
	d="
M366.221588,680.946838 
	C364.415222,685.652649 362.062439,689.126709 356.583527,688.106934 
	C350.141235,686.908020 346.768433,683.123413 346.768951,676.802368 
	C346.769196,673.654358 347.118500,670.491760 347.519012,667.362488 
	C347.923859,664.199829 348.319794,661.154297 346.884491,658.064941 
	C345.701843,655.519287 346.501038,652.796265 347.136017,650.216492 
	C350.314636,637.302673 356.869019,626.226746 365.726593,616.432312 
	C368.394165,613.482605 371.441742,611.337402 375.728424,611.806885 
	C378.491852,612.109497 379.725464,609.999512 381.331757,608.277039 
	C389.722321,599.279358 396.816986,589.026611 406.823547,581.592041 
	C411.314575,578.255310 416.057098,575.495667 418.887878,570.124084 
	C421.117035,565.894226 426.214539,565.187378 430.631805,564.343567 
	C433.643097,563.768250 435.844513,562.520935 437.296722,559.758606 
	C438.634155,557.214600 440.549408,555.149414 443.246887,553.898438 
	C444.774628,553.189941 446.535706,552.290283 445.890533,550.263306 
	C445.350220,548.565674 443.528870,548.839478 442.022278,548.768433 
	C431.396393,548.267517 420.786621,547.913574 410.323090,545.460938 
	C402.281769,543.576111 395.416626,540.738586 392.575531,532.109985 
	C391.719940,529.511475 389.707184,528.421936 386.828949,528.184753 
	C363.337189,526.249023 348.723297,509.339355 350.091064,485.742584 
	C350.524994,478.256653 351.074829,470.756073 354.930939,464.012604 
	C355.933777,462.258942 355.541138,460.527985 354.994202,458.710236 
	C351.445587,446.915955 347.911316,435.120361 343.700714,423.536194 
	C342.873383,421.260193 341.354584,420.169983 339.284027,419.189880 
	C333.543610,416.472748 331.568726,411.169495 333.927948,405.478699 
	C335.836456,400.875000 340.910217,398.499451 345.384094,400.114868 
	C350.981445,402.135956 353.551636,407.393890 351.375397,413.475403 
	C350.147675,416.906189 350.406372,419.764038 351.929871,423.001099 
	C355.899811,431.436218 359.527191,440.031860 363.376831,448.524658 
	C364.331787,450.631409 365.409027,453.065277 368.396698,452.443787 
	C371.525024,451.792999 371.894958,449.287140 371.679138,446.592529 
	C370.134003,427.299652 378.538879,413.399292 394.498871,403.131622 
	C423.489349,384.480927 454.527649,371.325348 489.080627,368.006378 
	C508.711151,366.120789 528.428772,365.590851 546.774597,375.072266 
	C550.024780,376.752014 553.167542,378.638458 556.396362,380.361206 
	C557.663757,381.037445 558.989563,382.233490 560.502136,380.981049 
	C561.815186,379.893829 561.892639,378.248199 561.482117,376.816162 
	C559.948792,371.467255 560.325134,365.407288 553.277405,362.673004 
	C548.599121,360.857941 547.821716,354.101318 550.548950,349.529083 
	C552.909241,345.572052 557.855042,344.120850 562.375183,346.058990 
	C567.103088,348.086212 569.982483,353.886261 567.570312,358.513306 
	C565.440735,362.598419 566.228149,366.001953 567.373108,369.920776 
	C570.825378,381.737030 574.118896,393.602661 577.254700,405.506866 
	C578.452271,410.053131 580.471619,413.284027 585.382996,414.504608 
	C590.914978,415.879486 594.542297,419.810303 596.965515,424.796692 
	C600.951355,432.998352 603.078247,441.683258 603.140259,450.822632 
	C603.186096,457.568848 601.504822,463.716431 596.343018,468.449158 
	C593.595459,470.968323 593.303284,474.157532 593.289062,477.587799 
	C593.258179,485.042847 593.944580,492.508423 590.500183,499.656738 
	C585.655396,509.711548 578.026123,516.800354 568.394043,521.964294 
	C557.952759,527.562012 547.103882,532.234436 535.875732,536.036865 
	C534.260803,536.583740 532.153259,536.633240 531.353821,539.364990 
	C536.030212,541.436951 538.923401,546.890869 545.457397,545.748047 
	C548.808533,545.161865 552.022339,546.891418 554.788635,548.777039 
	C557.980286,550.952576 561.181580,551.078491 564.759827,550.068665 
	C573.988037,547.464355 582.462952,543.348450 590.377563,537.966492 
	C596.520691,533.789062 603.101746,530.203735 604.635925,521.792969 
	C605.051208,519.516418 606.990906,517.399902 608.559692,515.478210 
	C611.216248,512.224121 611.111389,509.660461 608.268433,506.306213 
	C602.590942,499.607727 604.265869,492.023926 612.244690,488.191925 
	C617.473816,485.680542 623.056580,483.841034 628.599426,482.071869 
	C631.835266,481.039093 633.984131,479.286530 635.764526,476.397430 
	C640.828186,468.180725 645.505676,467.020294 654.109131,471.597809 
	C656.049561,472.630219 657.818176,472.798706 659.827881,472.084686 
	C668.385315,469.044128 677.319824,468.242218 686.295288,467.804565 
	C689.459534,467.650269 690.827087,466.003601 690.834290,463.060638 
	C690.866516,449.906311 690.804016,437.055969 684.035217,424.772949 
	C676.807068,411.656403 669.061584,398.799225 662.445129,385.345245 
	C655.391113,371.001556 650.021179,356.185913 651.722229,339.816650 
	C653.787781,319.939606 668.758484,309.086823 688.398193,313.189972 
	C706.929504,317.061493 718.288696,328.687317 724.348572,346.343109 
	C728.559021,358.610413 728.399841,371.213196 728.544250,383.853943 
	C728.557495,385.012939 728.539734,386.173676 728.604126,387.329803 
	C728.620667,387.626007 728.896179,387.907837 729.055542,388.201721 
	C730.629578,389.273407 731.966187,388.251984 733.229370,387.594635 
	C753.239075,377.182037 774.990967,373.382874 797.048279,370.780670 
	C801.008972,370.313385 805.010986,370.118958 808.999939,370.001740 
	C810.935303,369.944855 813.096680,369.918762 814.132568,372.665710 
	C811.144897,375.157623 807.397766,374.731903 803.932312,375.214630 
	C782.481140,378.202789 761.004272,381.066681 740.885437,389.807251 
	C740.579895,389.940002 740.271606,390.067566 739.959534,390.183929 
	C731.603882,393.299591 725.190674,397.760071 724.343872,407.895233 
	C723.753418,414.962921 720.684265,421.620911 718.138977,429.913544 
	C725.133911,424.021118 731.369324,419.478088 738.260742,415.896881 
	C752.003235,408.755432 766.825195,404.938141 781.807983,401.707031 
	C824.052856,392.596680 858.534912,371.226898 884.604553,336.679108 
	C894.275696,323.862762 902.179077,309.983398 907.465454,294.718170 
	C908.107849,292.862915 908.233765,289.632965 911.321228,290.773621 
	C914.057251,291.784454 912.801025,294.467438 912.131287,296.457062 
	C905.287292,316.789948 894.472900,334.816528 880.107971,350.686249 
	C874.577454,356.796112 869.092529,362.970551 861.530640,368.851044 
	C874.285950,369.268890 885.541199,369.579010 896.638245,371.668457 
	C901.907043,372.660583 907.027405,374.054138 911.629822,376.916748 
	C918.865112,381.417053 921.603027,388.488983 919.365784,396.692291 
	C915.946838,409.228577 907.105591,417.449280 896.956055,424.492279 
	C879.136169,436.858002 858.953796,442.655457 837.686768,445.273651 
	C836.861511,445.375244 836.018921,445.336365 835.193970,445.439423 
	C831.569153,445.892151 827.602600,445.602448 824.410156,447.032959 
	C820.141418,448.945801 823.881287,453.245789 823.007080,456.508240 
	C820.744751,464.951447 815.134644,470.355347 808.065552,474.417969 
	C796.902832,480.833344 784.785339,484.077637 771.845520,484.361938 
	C749.420715,484.854645 727.333557,482.163910 705.419983,477.689117 
	C701.140076,476.815155 697.281311,476.733154 694.092285,480.597046 
	C692.372498,482.680908 689.432373,482.967682 686.903687,483.816315 
	C679.107605,486.432800 677.718811,489.003754 680.461121,496.415131 
	C682.597595,502.188965 679.522400,506.382263 676.707275,510.673767 
	C675.533203,512.463562 673.884644,513.949097 672.407654,515.531738 
	C668.606689,519.604736 664.996826,523.402527 663.942993,529.557068 
	C662.795410,536.258728 656.986328,540.441833 651.630432,544.087830 
	C642.230835,550.486572 632.504761,556.432556 620.339661,555.361145 
	C618.313965,555.182678 616.949585,556.460754 615.474731,557.565857 
	C599.670837,569.407532 582.211853,576.278564 562.134949,575.402893 
	C555.064270,575.094482 549.973999,579.965149 550.386230,586.978210 
	C551.385376,603.976013 550.289978,620.911621 549.309387,637.857300 
	C549.075928,641.890503 548.611877,646.001465 546.113159,649.252563 
	C542.089050,654.488403 541.552368,660.511475 541.240173,666.695862 
	C540.336853,684.592346 538.392334,702.251221 529.142700,718.185608 
	C528.140808,719.911682 527.181641,721.697144 525.937439,723.241394 
	C522.672302,727.293640 516.771912,726.625366 514.373779,721.975708 
	C512.964600,719.243591 512.716492,716.263062 512.738770,713.226013 
	C512.834045,700.231079 512.780823,687.243835 511.741486,674.271179 
	C511.198853,667.498047 509.372833,666.006714 502.532898,666.884644 
	C497.258331,667.561646 491.969360,668.546814 486.619629,668.152100 
	C482.217743,667.827454 480.063812,669.810547 479.730194,674.071350 
	C478.925262,684.351318 478.178986,694.636414 477.288513,704.908997 
	C476.723145,711.431641 475.050201,717.674561 471.941772,723.489746 
	C467.938721,730.978577 457.542084,731.565735 453.299744,724.101746 
	C448.600952,715.834656 445.943298,706.704163 443.600616,697.457642 
	C440.872772,686.690857 442.350647,675.942261 442.789551,665.178589 
	C442.931732,661.692139 442.120148,659.033142 439.176178,657.007507 
	C436.088226,654.882812 434.899261,651.798950 434.532166,648.060120 
	C433.307861,635.590515 433.952820,623.090454 433.610107,610.609131 
	C433.538086,607.986572 434.105499,604.935608 431.102020,603.566345 
	C427.950287,602.129578 425.346130,603.771790 422.950989,605.822388 
	C415.869263,611.885254 408.807495,617.941467 403.052460,625.379944 
	C401.584167,627.277649 401.160461,629.134033 401.227661,631.362671 
	C401.537292,641.635803 399.964905,651.617676 396.230530,661.202393 
	C395.024689,664.297302 395.371674,667.429993 395.373810,670.574524 
	C395.376038,673.909424 395.343414,677.205322 394.341125,680.461975 
	C392.261566,687.218933 387.809509,689.852112 380.990509,688.170715 
	C376.188751,686.986755 376.361542,683.199158 376.365448,679.452637 
	C376.369904,675.161499 373.187775,672.433044 369.812225,673.802979 
	C366.740417,675.049622 367.314301,678.225342 366.221588,680.946838 
M567.927856,404.550476 
	C562.809692,392.956757 554.045410,387.018066 541.284851,385.910828 
	C526.552246,384.632507 512.109253,385.443420 497.593628,388.208862 
	C468.640839,393.724854 441.146332,402.435120 417.591217,421.097321 
	C409.523224,427.489471 408.144562,430.926239 411.007080,440.682983 
	C416.154083,458.226196 421.844543,475.610931 424.960693,493.719849 
	C427.213348,506.810699 428.241730,520.115295 431.819092,532.985229 
	C434.301575,541.916138 435.348846,542.873474 444.477142,542.863464 
	C471.595825,542.833679 498.102692,538.342285 524.343933,531.912476 
	C542.290466,527.515137 559.356750,521.111450 574.054626,509.549164 
	C582.598633,502.827911 586.979614,493.739655 586.577393,482.984894 
	C585.564697,455.905029 578.568237,430.146790 567.927856,404.550476 
M893.525146,422.028290 
	C899.715149,417.990265 905.313782,413.243469 909.658875,407.255829 
	C921.259094,391.270386 916.302490,379.472870 896.880371,375.973450 
	C885.849670,373.986023 874.753906,373.541992 863.601257,373.039673 
	C858.708862,372.819336 855.270752,374.013092 851.453369,376.888031 
	C838.893433,386.347198 825.121033,393.696625 810.338562,399.185089 
	C794.355591,405.119324 777.417175,407.347595 761.161133,412.208923 
	C744.995300,417.043274 730.083984,424.055786 717.955078,436.144501 
	C712.862610,441.220123 709.269836,447.206970 706.021362,454.621246 
	C709.700500,453.503357 711.433594,451.454926 713.424194,449.816193 
	C733.113953,433.607300 754.707153,422.290192 781.170593,423.810852 
	C795.834229,424.653442 809.626465,427.711792 819.025635,440.526764 
	C820.687866,442.793060 822.845398,442.832520 825.255859,442.529297 
	C830.206726,441.906525 835.174927,441.415619 840.118225,440.739929 
	C858.941162,438.166962 876.898865,433.062225 893.525146,422.028290 
M687.858765,317.318756 
	C681.575134,317.067078 675.197327,315.904388 669.244446,319.067169 
	C659.131470,324.440186 653.880127,336.760223 655.610779,350.024811 
	C657.206604,362.256317 661.303772,373.611206 666.953491,384.453430 
	C674.721497,399.361053 684.091614,413.415497 690.672241,428.961823 
	C691.078552,429.921692 691.486694,431.267456 693.109131,431.051300 
	C696.392029,425.094025 699.713013,419.163910 702.928345,413.177094 
	C703.955505,411.264618 704.498413,409.191162 704.350525,406.931641 
	C703.258545,390.249664 699.609314,374.371185 690.189819,360.195496 
	C689.202698,358.710022 687.501099,357.091888 688.659180,354.799927 
	C691.496338,354.152802 692.555969,356.240112 693.744141,357.971039 
	C700.516907,367.837006 705.258423,378.527435 707.430237,390.384247 
	C708.210938,394.646240 707.927979,399.262299 710.621948,403.631409 
	C715.051453,400.663818 718.811401,397.454956 722.297058,393.934875 
	C723.362000,392.859558 723.498108,391.255127 723.674622,389.736633 
	C724.774780,380.274139 725.119934,370.809143 723.632690,361.362549 
	C720.291931,340.143158 711.223145,323.440277 687.858765,317.318756 
M544.446899,580.080994 
	C544.176514,578.101746 543.950500,576.115295 543.627563,574.144653 
	C542.634216,568.082947 542.728699,561.796936 540.296143,556.029907 
	C538.072693,550.758728 535.424438,550.247864 531.531799,554.315430 
	C528.136658,557.863220 524.356201,560.846558 519.796570,562.630188 
	C503.164490,569.136353 486.111389,569.936035 468.768280,566.061890 
	C463.763336,564.943909 461.655670,566.528503 462.304718,571.591248 
	C463.897217,584.012878 463.598328,596.455078 463.276276,608.918762 
	C463.088013,616.205139 464.124512,617.773315 471.295624,619.144470 
	C495.475952,623.767700 518.674866,621.071777 540.513245,609.145630 
	C543.408447,607.564453 545.008362,605.446960 544.901978,601.983398 
	C544.687195,594.990601 544.671997,587.991699 544.446899,580.080994 
M700.134216,467.753265 
	C697.838928,472.003632 700.640381,473.121979 703.927734,473.644104 
	C710.160828,474.634125 716.434265,475.368744 722.670654,476.339722 
	C739.462402,478.954132 756.320557,480.680603 773.334229,479.722626 
	C785.459167,479.039948 797.056702,476.188141 807.247681,469.308868 
	C813.161560,465.316803 817.956055,460.383148 817.860168,452.340576 
	C817.813416,448.424255 816.305176,447.102875 812.482483,447.211243 
	C792.374023,447.781036 772.219604,446.284180 752.146484,448.305237 
	C733.383606,450.194366 715.365540,454.305328 700.134216,467.753265 
M472.947693,661.617920 
	C483.427612,661.729004 493.894653,662.087646 504.356934,660.737610 
	C515.034973,659.359741 525.215942,656.595520 534.705933,651.464905 
	C538.464783,649.432739 541.858643,646.925598 542.596008,642.379150 
	C543.767395,635.157043 544.875977,627.909851 544.675354,620.552673 
	C544.526550,615.094238 542.934692,614.089417 537.778198,616.308228 
	C515.950867,625.700378 493.441772,628.987000 469.955872,624.175110 
	C464.545441,623.066589 462.680481,624.582214 462.474823,630.281982 
	C462.276703,635.772461 461.995483,641.230225 461.285797,646.690063 
	C459.653381,659.248535 459.743866,659.260315 472.947693,661.617920 
M362.856445,660.704834 
	C369.524536,662.036987 376.133850,663.696655 382.973267,664.027222 
	C387.247040,664.233826 389.894073,662.380066 391.095245,658.261475 
	C392.353455,653.947327 393.327911,649.589783 393.878601,645.124268 
	C395.911438,628.640076 396.708221,628.457703 379.485809,619.964050 
	C373.942444,617.230164 370.643433,619.232300 367.616882,623.300903 
	C362.048828,630.786011 356.997192,638.584473 353.738556,647.417603 
	C351.190918,654.323364 352.047028,656.449585 358.804016,659.337646 
	C359.871704,659.794006 360.987640,660.137512 362.856445,660.704834 
M366.869537,461.256805 
	C365.775848,463.610565 367.158264,465.054626 368.805573,466.332153 
	C372.314362,469.053375 374.796326,472.561218 376.650238,476.531464 
	C382.560303,489.188049 383.920227,502.354980 380.978119,515.989441 
	C380.576141,517.852234 379.151306,519.947876 381.415710,521.427490 
	C383.899048,523.050110 385.500549,520.940796 387.200775,518.954041 
	C387.295380,523.834351 389.562408,522.312256 391.286896,520.955750 
	C392.963654,519.636841 394.762177,516.319885 395.688507,516.598877 
	C398.596252,517.474548 398.891785,515.687866 399.037354,514.126160 
	C399.773376,506.230072 401.464233,498.402435 400.684601,490.388641 
	C399.588806,479.125000 396.725555,468.465546 390.216949,459.034241 
	C387.726227,455.425140 384.398285,452.366150 379.825256,453.844116 
	C375.326996,455.297943 370.679626,457.004181 366.869537,461.256805 
M624.728943,507.897614 
	C623.069092,506.851379 621.819824,507.751923 620.791138,508.895752 
	C615.864746,514.373474 611.734009,520.401611 608.649353,527.104858 
	C607.938965,528.648621 607.852844,530.412231 608.398621,532.011047 
	C610.759460,538.927185 614.717224,544.799377 620.277954,549.560608 
	C621.867126,550.921387 623.668518,550.475159 625.508606,550.144958 
	C634.821716,548.473633 642.531677,543.604980 649.815552,537.946411 
	C653.712219,534.919250 653.614563,532.949890 649.226379,530.528320 
	C639.378540,525.093872 631.668518,517.434082 624.728943,507.897614 
M797.496033,442.855927 
	C802.669434,442.610809 807.913025,443.289276 813.226868,442.301727 
	C812.436340,439.710938 810.644409,438.954498 809.197388,437.928833 
	C796.994812,429.279205 783.397461,427.657928 768.809448,429.000305 
	C750.194946,430.713165 735.427490,440.478058 720.453796,450.096313 
	C726.624695,448.765045 732.624268,446.756470 738.787354,445.724701 
	C757.891907,442.526489 777.200073,442.621521 797.496033,442.855927 
M516.703247,379.920105 
	C520.498779,379.340332 524.718201,380.658875 528.333435,378.193054 
	C527.363770,376.356567 526.289856,376.399292 525.332092,376.203247 
	C510.454590,373.158173 495.615631,374.655518 480.631744,375.712860 
	C465.160583,376.804626 453.643555,383.934418 443.800995,394.993622 
	C442.989410,395.905548 441.485413,396.521576 442.477753,399.222137 
	C466.028595,389.457306 490.479401,382.981934 516.703247,379.920105 
M427.410034,595.377747 
	C436.755280,599.438599 443.147797,595.994568 444.684082,585.990845 
	C444.959198,584.199036 444.983978,582.341614 444.894684,580.525696 
	C444.469055,571.867798 438.075928,567.514771 429.721069,570.058655 
	C424.826599,571.548889 421.611237,574.701416 420.604340,579.677979 
	C419.321625,586.017822 421.700287,591.076538 427.410034,595.377747 
M447.800751,386.691132 
	C450.408234,382.657135 446.821411,384.276031 445.683472,384.625458 
	C441.726471,385.840485 438.397827,389.007507 434.647156,389.980225 
	C422.740082,393.068298 413.296875,399.102753 406.342072,409.282440 
	C403.866943,412.905304 405.860168,414.373749 408.483368,415.878174 
	C408.777527,417.360474 406.734375,418.440369 408.165161,420.568848 
	C415.337189,414.292572 424.258240,410.695831 430.872467,403.775970 
	C436.263641,398.135651 441.845306,392.677429 447.800751,386.691132 
M370.108459,475.478180 
	C368.727142,473.158386 366.894928,471.254761 364.724121,469.668274 
	C363.281189,468.613708 361.730316,468.078674 360.134766,469.249359 
	C358.430237,470.500061 357.529694,472.305389 357.503601,474.386261 
	C357.479218,476.329071 359.137543,476.628967 360.592377,477.044128 
	C362.207062,477.504852 363.960083,477.992859 364.681427,479.631897 
	C369.309723,490.148621 374.397766,500.708557 367.804199,512.233337 
	C366.221893,514.999023 366.970398,516.561462 369.341278,517.919189 
	C371.771820,519.311157 373.531586,518.262268 374.673065,516.079163 
	C375.354767,514.775330 375.845947,513.306702 376.101959,511.855621 
	C378.315826,499.306885 375.976227,487.452606 370.108459,475.478180 
M472.309326,696.564819 
	C472.556366,694.759644 472.898987,692.961426 473.031647,691.147888 
	C473.365845,686.579102 471.774963,684.749451 467.257233,685.536316 
	C462.354523,686.390137 457.695831,686.214355 453.014221,684.655396 
	C451.251099,684.068359 449.727020,684.519958 448.725098,686.211609 
	C446.417389,690.107971 449.105286,698.721802 453.507019,699.846436 
	C459.846252,701.466125 466.332581,701.936462 472.309326,696.564819 
M670.621399,486.391937 
	C675.865295,483.822388 671.906738,480.273682 671.288330,477.379242 
	C670.638184,474.336334 667.725952,474.911835 665.447205,475.505280 
	C661.422791,476.553406 657.442322,477.772919 653.455627,478.961884 
	C650.924194,479.716888 648.154907,480.892517 649.627319,484.047791 
	C651.026428,487.046021 651.036011,492.374817 657.014832,490.476257 
	C661.294434,489.117279 665.624512,487.917297 670.621399,486.391937 
M583.378723,424.507263 
	C586.355774,435.749481 589.332886,446.991669 592.309937,458.233887 
	C592.959351,458.072968 593.608765,457.912048 594.258179,457.751129 
	C596.691833,446.197479 595.319580,435.052795 589.981079,424.369446 
	C589.478577,423.363892 588.676758,422.385223 587.771851,421.726807 
	C585.235779,419.881531 583.422363,420.056793 583.378723,424.507263 
M591.630371,562.498718 
	C590.419556,559.412231 589.259033,556.304871 587.986938,553.243835 
	C585.723633,547.797791 582.521667,547.064331 578.093811,550.913757 
	C575.316101,553.328613 575.938904,565.518677 578.965637,567.595276 
	C579.361755,567.867004 579.902588,568.176880 580.328064,568.118286 
	C584.534729,567.538818 589.007812,567.519287 591.630371,562.498718 
M505.493622,557.202271 
	C503.335724,558.835022 499.636627,557.953857 498.001221,561.700745 
	C509.135834,561.810730 518.552002,559.128967 526.119568,551.398010 
	C527.614624,549.870728 528.530396,547.898499 527.571838,545.968506 
	C526.154541,543.114868 523.003540,542.959534 520.301819,542.415527 
	C518.443542,542.041382 516.835327,543.141296 516.528076,544.913147 
	C515.462524,551.057556 510.830627,553.944397 505.493622,557.202271 
M532.456665,686.083313 
	C535.372009,683.882507 535.220093,680.463745 535.402588,677.453003 
	C535.577637,674.564514 534.029358,672.770569 530.582336,673.895203 
	C527.594604,674.870056 524.502625,675.521240 521.469177,676.360779 
	C518.176392,677.272034 517.091003,679.613159 517.387756,682.819641 
	C517.678101,685.957458 519.394043,687.676880 522.530884,687.764954 
	C525.673523,687.853333 528.861328,688.057312 532.456665,686.083313 
M707.934143,434.732666 
	C707.768127,435.784393 706.829834,436.858063 708.604858,438.422852 
	C716.013367,427.814941 718.615784,415.830627 720.444397,403.489441 
	C715.178650,407.654938 709.118591,410.842773 709.733032,419.244995 
	C710.087646,424.094299 708.704529,429.070648 707.934143,434.732666 
M457.734528,706.234985 
	C455.687775,706.094238 453.445343,705.879333 453.145813,708.678345 
	C452.847107,711.469177 453.679382,713.953735 456.282104,715.513733 
	C458.986786,717.134949 466.872681,716.626648 469.157684,714.501160 
	C471.086395,712.707214 472.087799,710.229919 471.179016,707.756531 
	C470.252380,705.234436 467.836914,705.670044 465.594147,705.959229 
	C463.299194,706.255188 460.956604,706.181824 457.734528,706.234985 
M528.073303,705.698608 
	C529.363281,705.095215 530.205200,704.077759 530.549377,702.727051 
	C531.188354,700.219055 532.976746,697.316772 530.308289,695.311890 
	C527.475830,693.183716 523.821838,693.874817 520.689087,694.753967 
	C517.972290,695.516479 518.189209,698.364685 518.236267,700.716919 
	C518.340454,705.921875 520.608215,707.218262 528.073303,705.698608 
M388.979156,441.366577 
	C388.576843,442.091522 388.199097,442.831451 387.767761,443.538727 
	C386.158081,446.178467 386.618164,448.264374 389.424774,449.689178 
	C392.623871,451.313324 393.659058,448.892395 394.429718,446.704590 
	C395.922485,442.466675 397.715393,438.386169 399.916870,434.478882 
	C400.860382,432.804382 400.797974,431.292603 399.184937,430.089172 
	C397.179047,428.592621 396.118683,430.173218 395.202179,431.533020 
	C393.167877,434.551208 391.261414,437.655579 388.979156,441.366577 
M658.997070,515.382935 
	C662.826477,516.694824 666.901001,514.529724 669.549194,509.149841 
	C671.933594,504.306000 666.433960,503.704346 664.921204,500.404327 
	C662.257385,503.317291 659.970581,505.689667 657.834473,508.190826 
	C655.795837,510.577850 655.671997,512.942993 658.997070,515.382935 
M637.004944,501.382202 
	C640.715698,501.106934 646.513977,493.783508 645.330322,490.513428 
	C644.421692,488.002991 642.212524,486.071350 639.518188,487.103607 
	C636.369751,488.309814 634.151062,490.917206 633.296265,494.405243 
	C632.550110,497.450195 633.737305,499.570465 637.004944,501.382202 
M700.605164,444.149109 
	C702.616455,437.425659 704.267456,430.660187 703.031616,423.537201 
	C697.653931,432.802155 694.021973,442.404480 696.974548,454.840424 
	C698.389954,450.675537 699.370728,447.789520 700.605164,444.149109 
M396.250854,600.672546 
	C396.897034,605.354492 401.596497,606.726624 403.937042,610.044189 
	C405.351044,612.048462 407.230225,612.037231 409.063660,610.382019 
	C410.798340,608.815979 411.259155,606.949158 409.805481,605.082886 
	C408.178925,602.994629 406.360229,601.034912 404.468994,599.178345 
	C400.696747,595.475098 399.715271,595.614990 396.250854,600.672546 
M548.471252,566.827393 
	C549.079956,568.325745 549.335754,570.105591 551.343018,570.490601 
	C555.161926,567.169006 556.196838,558.727478 553.171326,555.288696 
	C551.792664,553.721741 550.038574,552.529480 547.916626,553.530396 
	C545.892273,554.485352 546.046936,556.501099 546.446411,558.338928 
	C547.009094,560.927612 547.703064,563.487793 548.471252,566.827393 
M421.690552,514.590698 
	C422.356689,513.001343 422.670685,511.475677 420.445435,509.876831 
	C415.469757,518.589172 409.477936,526.600281 408.220917,536.867126 
	C414.112183,530.492798 416.390930,522.033386 421.690552,514.590698 
M408.726837,516.419617 
	C412.375732,511.087860 414.524048,504.864410 418.720123,499.836670 
	C420.263947,497.986877 419.758850,495.977295 418.049377,493.886414 
	C413.434692,499.971375 411.216370,506.852081 407.505798,512.894958 
	C406.876862,513.919250 406.069092,515.995850 408.726837,516.419617 
M620.218689,490.538757 
	C618.661316,492.283722 617.852783,494.115570 619.499512,496.270325 
	C620.609863,497.723114 621.888550,497.586334 623.438843,496.968353 
	C627.244019,495.451447 628.857910,492.649109 628.973511,488.651001 
	C625.763977,487.525574 623.293091,488.891693 620.218689,490.538757 
M389.413055,674.193970 
	C388.941620,672.918884 388.399628,671.553833 386.767151,671.689697 
	C383.607910,671.952759 382.895599,674.486084 382.496368,676.965820 
	C382.184570,678.902588 381.963409,681.203247 384.757385,681.633118 
	C387.578552,682.067261 388.435150,680.014404 388.971497,677.789673 
	C389.201508,676.835571 389.353973,675.862854 389.413055,674.193970 
M518.388428,714.047791 
	C518.647095,716.438843 517.197083,720.150757 520.936584,720.316162 
	C523.816772,720.443604 524.425415,716.837830 525.354126,714.473999 
	C526.007507,712.810974 524.998657,711.708923 523.406250,711.096985 
	C521.003296,710.173584 519.232605,710.583801 518.388428,714.047791 
M455.480072,652.614990 
	C455.477448,650.274780 456.578857,647.724854 454.391449,645.722961 
	C451.723145,646.287537 451.015259,648.536804 449.816986,650.231750 
	C448.657532,651.871826 447.379700,653.691772 449.898956,655.311829 
	C452.536163,657.007751 454.239075,656.068726 455.480072,652.614990 
M356.585785,675.957642 
	C357.022491,674.378357 357.435516,672.791992 357.901978,671.221558 
	C358.472900,669.299377 357.917145,667.915894 355.915466,667.470642 
	C353.645325,666.965698 352.473877,668.155823 352.334320,670.347168 
	C352.219879,672.144897 352.035767,673.991028 352.309753,675.749146 
	C352.837708,679.136841 354.349609,679.225220 356.585785,675.957642 
M409.326324,499.586456 
	C409.425049,499.891602 409.495911,500.210846 409.638855,500.493622 
	C409.683624,500.582214 409.986023,500.655548 410.063385,500.596222 
	C413.216400,498.177429 413.588776,493.881226 416.288116,491.219238 
	C418.855042,488.687775 418.339508,486.544617 415.759735,483.296692 
	C413.442657,489.000214 411.414368,493.992859 409.326324,499.586456 
M669.507141,501.790283 
	C670.565369,502.651672 671.107422,504.412415 673.199707,503.792603 
	C673.631287,503.046539 674.272278,502.261139 674.569580,501.362061 
	C675.359985,498.971558 675.024841,496.828522 672.759583,495.309113 
	C671.231567,494.284241 669.699158,494.044830 668.351868,495.541565 
	C666.420044,497.687744 667.958191,499.464722 669.507141,501.790283 
M403.752380,454.266754 
	C404.301910,451.532074 408.153534,449.570801 405.910217,445.911224 
	C400.376495,450.596497 397.861816,457.284912 400.475586,460.025452 
	C402.060181,458.671844 402.480896,456.636139 403.752380,454.266754 
M398.092316,452.069794 
	C399.764648,447.427032 403.416260,443.446106 402.924652,438.032196 
	C399.450714,442.087891 396.835754,446.554535 395.693420,451.705078 
	C395.123474,454.275085 396.065674,454.645935 398.092316,452.069794 
M681.768066,475.258759 
	C680.028748,475.269897 677.878540,474.535217 677.069458,476.772949 
	C676.411926,478.591583 677.094910,480.273285 678.869751,481.296906 
	C683.747070,478.873108 684.211182,478.083374 681.768066,475.258759 
M411.310638,478.048218 
	C410.422943,480.888092 408.398224,483.542511 409.573761,486.778320 
	C411.667053,484.238159 413.158844,481.541199 414.667725,478.853851 
	C415.298553,477.730347 415.530029,476.542206 414.228485,475.882629 
	C412.784637,475.150970 412.299683,476.600983 411.310638,478.048218 
M409.599030,463.806183 
	C410.557526,462.241058 411.350525,460.666840 409.855164,458.572876 
	C407.258545,460.808289 406.510956,463.435028 406.385345,466.508759 
	C408.113007,466.423645 408.390930,465.059296 409.599030,463.806183 
z"/>
<path fill="#000000" opacity="1.000000" stroke="none" 
	d="
M495.140076,445.182739 
	C497.523499,452.680573 498.147949,459.932892 496.539886,467.234741 
	C493.959991,478.949768 486.555054,486.232422 475.698669,488.063873 
	C467.708344,489.411804 456.381897,483.302490 451.240295,474.467010 
	C445.203979,464.094055 443.300171,453.089966 446.883362,441.350769 
	C452.368164,423.381378 474.220245,418.349731 487.244507,432.117645 
	C490.728363,435.800476 493.280701,440.050934 495.140076,445.182739 
M473.907898,451.799835 
	C475.262177,452.625763 476.785858,452.858917 478.249542,452.472778 
	C482.108429,451.454803 483.213470,453.153625 483.464539,456.782806 
	C483.875061,462.716095 483.111115,468.359528 480.953278,473.889618 
	C480.288483,475.593353 478.715515,477.321960 480.328278,479.683289 
	C483.558075,479.200745 485.465607,477.015320 487.170868,474.513885 
	C495.554596,462.215729 490.754791,444.462524 483.733734,436.773346 
	C480.076355,432.767883 475.626587,429.769012 469.807770,429.982788 
	C467.780457,430.057281 465.583984,430.033813 464.072266,432.544678 
	C465.605804,432.934784 466.724731,433.176758 467.816437,433.508301 
	C469.089020,433.894775 470.395966,434.238617 471.586945,434.811127 
	C476.906036,437.368195 477.384705,439.491852 473.609894,443.994965 
	C471.560913,446.439301 470.544556,448.806091 473.907898,451.799835 
z"/>
<path fill="#000000" opacity="1.000000" stroke="none" 
	d="
M534.097778,464.796021 
	C526.409668,453.688110 524.602478,441.879089 528.266235,429.364502 
	C530.703430,421.039429 535.780701,414.693665 544.710266,413.026154 
	C553.875061,411.314758 560.822571,415.790833 566.344360,422.646820 
	C575.231201,433.680908 576.515991,451.280853 569.517944,463.569366 
	C562.605713,475.707397 548.257751,478.012512 537.815186,468.637512 
	C536.581238,467.529663 535.483643,466.269958 534.097778,464.796021 
M561.251709,441.623138 
	C562.220703,450.195038 561.176941,458.405731 556.044189,465.961731 
	C560.191589,466.309357 560.449707,466.240692 562.299438,464.131134 
	C574.024536,450.759369 567.041077,427.672424 556.506836,420.853577 
	C554.863953,419.790161 552.958130,418.893860 551.056274,418.521606 
	C547.544067,417.834137 544.153564,418.182068 541.846008,421.530212 
	C542.829529,423.110504 544.351013,422.455811 545.552979,422.805908 
	C546.825500,423.176605 548.135376,423.455261 549.361328,423.943817 
	C554.892273,426.147980 555.171143,427.076874 551.955933,431.876740 
	C550.924377,433.416779 549.866516,435.053955 550.924561,436.949493 
	C552.081421,439.022064 553.959656,439.941925 556.359436,439.721283 
	C558.060120,439.564941 560.021057,438.342773 561.251709,441.623138 
z"/>
<path fill="#000000" opacity="1.000000" stroke="none" 
	d="
M529.156616,508.413391 
	C508.779907,513.146362 488.908020,513.136414 469.208282,507.075806 
	C463.383270,505.283691 462.464050,502.459137 465.922333,498.024353 
	C466.665039,497.071899 467.415680,496.195984 468.794525,496.524323 
	C469.913055,496.790619 470.599762,497.669250 470.590271,498.669250 
	C470.553925,502.502136 473.235901,503.150085 476.130188,503.777466 
	C496.089020,508.103790 515.781006,507.123901 535.096191,500.521118 
	C542.735168,497.909729 549.270081,493.247345 555.381775,488.029266 
	C556.806824,486.812622 558.019714,485.472656 557.557739,483.331390 
	C557.243469,481.875031 557.579285,480.613403 559.203369,480.207733 
	C560.700684,479.833771 561.775024,480.709290 562.595276,481.809753 
	C564.858826,484.846741 564.392517,487.414429 561.684875,490.144531 
	C552.660706,499.243713 542.030518,505.378143 529.156616,508.413391 
z"/>
<path fill="#000000" opacity="1.000000" stroke="none" 
	d="
M423.640320,402.867157 
	C421.627716,403.578888 421.641541,402.483612 422.337830,401.564636 
	C424.997620,398.054199 428.027893,394.910889 432.166779,392.984375 
	C430.415466,397.115936 427.201965,399.962646 423.640320,402.867157 
z"/>
<path fill="#000000" opacity="1.000000" stroke="none" 
	d="
M417.468323,404.532776 
	C415.982758,406.254181 414.708130,407.718506 413.433472,409.182831 
	C413.765869,405.416046 415.691620,402.773224 418.594116,400.301514 
	C419.804596,402.268311 418.387177,403.189270 417.468323,404.532776 
z"/>
</svg>